<svg version="1.1" xmlns="http://www.w3.org/2000/svg" height="1024" width="1024" viewBox="0 0 1024 1024"><path d="M61.44 513.706667a448.853333 322.56 0 1 0 897.706667 0 448.853333 322.56 0 1 0-897.706667 0Z" fill="#FFFFFF"></path><path d="M829.44 457.386667c-34.133333-63.146667-97.28-100.693333-163.84-124.586667-69.973333-23.893333-148.48-30.72-221.866667-18.773333-66.56 6.826667-136.533333 32.426667-191.146666 75.093333-56.32 40.96-88.746667 109.226667-64.853334 177.493333 44.373333 121.173333 196.266667 163.84 312.32 167.253334 71.68 6.826667 150.186667-11.946667 215.04-42.666667 61.44-30.72 124.586667-83.626667 129.706667-157.013333 1.706667-29.013333-5.12-52.906667-15.36-76.8-15.36-27.306667 10.24 23.893333 0 0z m-361.813333-136.533334c29.013333-3.413333 58.026667-3.413333 87.04 0 29.013333 5.12 56.32 11.946667 83.626666 23.893334H385.706667c3.413333-5.12 58.026667-20.48 81.92-23.893334 29.013333-1.706667-23.893333 3.413333 0 0z m-124.586667 372.053334c-73.386667-27.306667-158.72-88.746667-153.6-177.493334 0-92.16 98.986667-146.773333 172.373333-172.373333h3.413334c-1.706667 0-1.706667 1.706667-3.413334 1.706667-32.426667 17.066667-59.733333 37.546667-81.92 66.56-42.666667 51.2-51.2 124.586667-22.186666 184.32 23.893333 46.08 61.44 76.8 105.813333 102.4 0 0 1.706667 0 1.706667 1.706666-6.826667-1.706667-15.36-5.12-22.186667-6.826666-30.72-11.946667 6.826667 1.706667 0 0z m209.92 25.6c-58.026667 6.826667-119.466667 1.706667-172.373333-23.893334h257.706666c-27.306667 11.946667-56.32 20.48-85.333333 23.893334z m-189.44-34.133334c-1.706667 0-3.413333-1.706667-5.12-1.706666-18.773333-10.24-37.546667-23.893333-54.613333-39.253334l-1.706667-1.706666c138.24 0 274.773333 1.706667 413.013333 1.706666-1.706667 1.706667-3.413333 3.413333-6.826666 3.413334-15.36 13.653333-34.133333 27.306667-51.2 37.546666-5.12 5.12-18.773333 1.706667-25.6 1.706667H517.12c-51.2-1.706667-102.4-1.706667-153.6-1.706667zM808.96 597.333333c-34.133333 51.2-92.16 87.04-150.186667 104.106667h-3.413333c1.706667 0 1.706667-1.706667 3.413333-1.706667 58.026667-30.72 104.106667-80.213333 117.76-145.066666 15.36-93.866667-42.666667-167.253333-119.466666-211.626667-1.706667 0-3.413333 0-3.413334-1.706667 5.12 1.706667 10.24 3.413333 13.653334 8.533334 32.426667 11.946667 61.44 25.6 88.746666 46.08 68.266667 44.373333 97.28 128 52.906667 201.386666-15.36 23.893333 13.653333-20.48 0 0z" fill="#132D81"></path><path d="M541.013333 621.226667c-5.12 1.706667-10.24 5.12-13.653333 6.826666v1.706667c0 1.706667 1.706667 1.706667 1.706667 1.706667 5.12-3.413333 8.533333-6.826667 11.946666-10.24zM375.466667 610.986667c3.413333-1.706667 5.12-3.413333 8.533333-6.826667 0 0 0-1.706667-1.706667-3.413333h-1.706666c-3.413333 3.413333-5.12 5.12-5.12 10.24zM552.96 600.746667c-1.706667 5.12-1.706667 6.826667 3.413333 6.826666h1.706667s0-1.706667-1.706667-1.706666c0-5.12-1.706667-5.12-3.413333-5.12z" fill="#132D81"></path><path d="M228.693333 293.546667c13.653333-5.12-6.826667-27.306667 17.066667-15.36 3.413333 8.533333-8.533333 11.946667-6.826667 20.48 0 11.946667 11.946667 3.413333 6.826667-3.413334 0-1.706667 0-3.413333-1.706667-5.12 3.413333 0 8.533333 0 11.946667 1.706667 1.706667 0 1.706667 1.706667 0 3.413333-1.706667 3.413333-1.706667 6.826667-3.413333 8.533334v3.413333c1.706667 0 1.706667 0 1.706666 1.706667 0-6.826667 8.533333-15.36 13.653334-11.946667v3.413333c-3.413333 5.12-6.826667 10.24-10.24 13.653334 0 1.706667 0 1.706667-1.706667 3.413333 1.706667 0 11.946667 1.706667 11.946667 3.413333-1.706667 3.413333-6.826667 6.826667-8.533334 11.946667 0 3.413333 8.533333 15.36 10.24 18.773333 0 25.6-13.653333-1.706667-20.48-8.533333-3.413333 5.12-6.826667 8.533333-10.24 11.946667-1.706667 1.706667-5.12 3.413333-8.533333 3.413333v-3.413333c3.413333-6.826667 6.826667-11.946667 8.533333-20.48 0-1.706667 1.706667-3.413333 1.706667-6.826667-1.706667 0-1.706667 1.706667-3.413333 1.706667-5.12 6.826667-10.24 11.946667-13.653334 17.066666-3.413333 3.413333-6.826667 6.826667-11.946666 5.12-1.706667 0-3.413333-1.706667-5.12-1.706666 10.24-10.24 17.066667-18.773333 27.306666-29.013334-1.706667-1.706667-1.706667-3.413333-3.413333-5.12-1.706667 1.706667-1.706667 3.413333-1.706667 5.12-1.706667 1.706667-1.706667 5.12-1.706666 6.826667l-1.706667 1.706667c-3.413333 0-6.826667-1.706667-10.24-1.706667 1.706667-1.706667 1.706667-3.413333-1.706667-5.12l-5.12-5.12h13.653334c5.12 0 5.12 0 5.12-3.413333h5.12c-1.706667-1.706667-3.413333-1.706667-5.12-3.413334 0-1.706667-1.706667-1.706667-1.706667-3.413333l1.706667-1.706667c1.706667 0 1.706667-1.706667 1.706666-1.706666v-3.413334c-8.533333 0-10.24 11.946667-17.066666 13.653334-15.36 5.12 0-11.946667 6.826666-13.653334 6.826667-3.413333 8.533333-3.413333 10.24-6.826666-1.706667 1.706667-3.413333 0-3.413333 0-3.413333-1.706667-8.533333-3.413333-11.946667-5.12-1.706667 0-1.706667-1.706667-3.413333-1.706667l-1.706667-1.706667 1.706667-1.706666c11.946667 0 15.36 1.706667 18.773333 10.24z m11.946667 51.2c1.706667 0 11.946667-8.533333 8.533333-11.946667-5.12 3.413333-6.826667 8.533333-8.533333 11.946667z m1.706667-39.253334c1.706667 3.413333 3.413333 5.12 5.12 8.533334 3.413333-1.706667 3.413333-5.12 1.706666-8.533334-3.413333-1.706667-3.413333-1.706667-6.826666 0 1.706667 3.413333 3.413333-1.706667 0 0 1.706667 3.413333 3.413333-1.706667 0 0z m15.36 1.706667c-3.413333 3.413333-6.826667 6.826667-8.533334 10.24 1.706667 1.706667 3.413333 1.706667 3.413334 0 3.413333-1.706667 3.413333-5.12 5.12-10.24 0 1.706667 0 1.706667 0 0z m-20.48-23.893333c0 1.706667 1.706667 1.706667 1.706666 3.413333 1.706667-1.706667 1.706667-5.12 0-6.826667 0 1.706667-1.706667 1.706667-1.706666 3.413334s0-1.706667 0 0z m17.066666 37.546666c0 1.706667 0 3.413333 1.706667 5.12h1.706667v-3.413333s-1.706667 0-3.413334-1.706667zM745.813333 298.666667c1.706667-6.826667 1.706667-13.653333 3.413334-20.48 5.12 1.706667 3.413333 6.826667 6.826666 8.533333 0 0 0-1.706667 1.706667-1.706667v-15.36s1.706667 0 1.706667 1.706667c1.706667 3.413333 1.706667 5.12 3.413333 8.533333v6.826667c5.12 6.826667 6.826667-5.12 6.826667-6.826667 5.12 5.12 10.24 5.12 13.653333 0 5.12 3.413333 6.826667 8.533333 1.706667 13.653334 6.826667 0 17.066667 1.706667 20.48 8.533333 1.706667 8.533333-5.12 8.533333-10.24 8.533333-3.413333 0-13.653333-1.706667-10.24 5.12 0 5.12-10.24 6.826667-13.653334 8.533334 1.706667 0 1.706667 1.706667 3.413334 1.706666l3.413333 3.413334c3.413333 6.826667-8.533333 5.12-11.946667 5.12 0-1.706667 0-1.706667 1.706667-3.413334v-1.706666h-3.413333c-1.706667 1.706667-3.413333 1.706667-3.413334 3.413333-3.413333 5.12-6.826667 11.946667-10.24 15.36-6.826667 15.36-11.946667 5.12-17.066666-5.12 1.706667 0 3.413333 1.706667 3.413333 1.706667 3.413333 1.706667 6.826667 1.706667 8.533333-1.706667 5.12-5.12 8.533333-11.946667 11.946667-17.066667V324.266667c-10.24 0-23.893333 8.533333-30.72-1.706667-1.706667-1.706667-1.706667-5.12-3.413333-6.826667 5.12 0 8.533333 1.706667 11.946666 1.706667 11.946667 1.706667 29.013333 6.826667 35.84-5.12 0-1.706667-25.6 0-17.066666-5.12 8.533333 0 15.36 1.706667 22.186666 3.413333h1.706667l10.24-5.12c1.706667 0 3.413333-1.706667 5.12-3.413333 3.413333-1.706667 1.706667-3.413333 0-5.12-1.706667 0-5.12-1.706667-6.826667-1.706667-5.12 3.413333-1.706667 8.533333-8.533333 10.24-3.413333 1.706667-6.826667 0-10.24-5.12-1.706667-1.706667 0-5.12 3.413333-6.826666l3.413334-3.413334c-3.413333-1.706667-6.826667-1.706667-8.533334 1.706667 0 1.706667 0 3.413333-1.706666 3.413333 0 1.706667 0 1.706667-1.706667 3.413334 0 0-1.706667 1.706667-3.413333 1.706666l-1.706667-1.706666v-1.706667c-1.706667-3.413333-1.706667-3.413333-5.12-1.706667-5.12 3.413333-5.12 3.413333-6.826667 3.413334z m23.893334-3.413334l-3.413334 3.413334s0 1.706667 1.706667 1.706666c1.706667-1.706667 1.706667-1.706667 1.706667-5.12 1.706667 1.706667 1.706667 0 0 0-1.706667 1.706667 1.706667 0 0 0-1.706667 1.706667 1.706667 0 0 0zM558.08 247.466667c6.826667 0 8.533333-11.946667 15.36-8.533334 8.533333 5.12-5.12 18.773333-8.533333 23.893334-1.706667 1.706667 0 3.413333 0 5.12 3.413333 5.12 10.24 6.826667 13.653333 8.533333 1.706667 0 1.706667 0 3.413333 1.706667-5.12 3.413333-10.24 5.12-13.653333 6.826666-6.826667 3.413333-8.533333-6.826667-11.946667-11.946666-5.12 5.12-11.946667 8.533333-18.773333 5.12 1.706667-1.706667 3.413333-1.706667 5.12-1.706667 15.36-8.533333 5.12-10.24 5.12-22.186667h3.413333c1.706667 1.706667 5.12 3.413333 6.826667 6.826667 1.706667-3.413333 3.413333-6.826667 5.12-8.533333-1.706667 0-3.413333 1.706667-3.413333 1.706666-6.826667 6.826667-10.24-5.12-6.826667-10.24-1.706667 0-3.413333 0-5.12 1.706667 0 0-1.706667 0-1.706667 1.706667-1.706667 3.413333-5.12 6.826667-6.826666 8.533333 0 8.533333-1.706667 18.773333-5.12 25.6-5.12 11.946667-5.12-15.36-5.12-15.36-1.706667 1.706667-3.413333 5.12-6.826667 6.826667-5.12 1.706667-5.12-6.826667-1.706667-8.533334 3.413333-3.413333 6.826667-5.12 10.24-6.826666 3.413333 0 1.706667-10.24 3.413334-13.653334-1.706667 0-1.706667 0-1.706667 1.706667l-5.12 5.12c-3.413333 1.706667-6.826667 1.706667-8.533333 0-1.706667-3.413333-1.706667-5.12 1.706666-5.12 5.12-1.706667 10.24-5.12 13.653334-6.826667l1.706666-1.706666c0-6.826667 0-11.946667 1.706667-17.066667 0-3.413333 5.12-6.826667 8.533333-3.413333s0 13.653333 0 17.066666l1.706667-1.706666h3.413333v3.413333h-1.706666c-6.826667 5.12-6.826667 6.826667-6.826667 13.653333 3.413333 0 5.12-3.413333 3.413333-6.826666 0-1.706667 0-1.706667 1.706667-3.413334 3.413333-1.706667 6.826667-1.706667 10.24-3.413333 1.706667 0 3.413333-1.706667 3.413333-3.413333 1.706667-5.12 3.413333-8.533333 3.413334-13.653334 1.706667-3.413333 3.413333-5.12 6.826666-1.706666 11.946667 5.12 0 15.36-6.826666 18.773333-6.826667 5.12-6.826667 8.533333-6.826667 11.946667z" fill="#E00B22"></path><path d="M225.28 674.133333c1.706667-3.413333 1.706667-5.12 0-6.826666 0 0 1.706667 0 1.706667 1.706666l6.826666 6.826667c-3.413333-1.706667-5.12-1.706667-6.826666 1.706667-8.533333 10.24-15.36 18.773333-23.893334 29.013333-5.12 6.826667-10.24 11.946667-15.36 17.066667 6.826667-17.066667 13.653333-37.546667 18.773334-54.613334 0 0 0 1.706667-1.706667 1.706667-8.533333 10.24-17.066667 18.773333-25.6 30.72-1.706667 1.706667-1.706667 3.413333-3.413333 3.413333-1.706667 1.706667-1.706667 3.413333 0 5.12v1.706667c-3.413333-3.413333-6.826667-5.12-8.533334-6.826667v-1.706666h1.706667c5.12 5.12 17.066667-13.653333 18.773333-15.36 6.826667-6.826667 27.306667-23.893333 22.186667-35.84v1.706666c-3.413333-3.413333-6.826667-1.706667-8.533333 0l-25.6 20.48c-1.706667 3.413333-10.24 8.533333-17.066667 8.533334-8.533333 1.706667-13.653333-6.826667-11.946667-13.653334 1.706667-5.12 5.12-8.533333 8.533334-11.946666 10.24-8.533333 17.066667-13.653333 27.306666-22.186667 1.706667-1.706667 11.946667-6.826667 8.533334-10.24v-1.706667c5.12 5.12 10.24 11.946667 8.533333 11.946667-3.413333-1.706667-5.12-1.706667-8.533333 0-11.946667 10.24-22.186667 18.773333-35.84 29.013333-1.706667 1.706667-3.413333 5.12-5.12 8.533334-3.413333 11.946667 11.946667 8.533333 17.066666 6.826666 5.12-5.12 11.946667-8.533333 15.36-13.653333 3.413333-3.413333 23.893333-15.36 18.773334-20.48v-1.706667h1.706666c3.413333 5.12 8.533333 6.826667 11.946667 11.946667 1.706667 1.706667 1.706667 1.706667 1.706667 3.413333-5.12 15.36-18.773333 46.08-18.773334 47.786667 0-1.706667 17.066667-23.893333 27.306667-32.426667z"></path><path d="M336.213333 273.066667c0 5.12-3.413333 15.36-10.24 15.36-8.533333 0-6.826667-15.36-6.826666-20.48 1.706667 0 1.706667 0 3.413333 1.706666l5.12 5.12c6.826667 5.12 5.12-11.946667 3.413333-13.653333 0-1.706667-17.066667-29.013333-3.413333-22.186667 5.12 3.413333 6.826667 10.24 10.24 15.36l1.706667-1.706666c1.706667-3.413333 5.12-6.826667 6.826666-10.24 1.706667-1.706667 10.24-6.826667 10.24 0 0 5.12-5.12 8.533333-5.12 13.653333-1.706667 3.413333 0 5.12 3.413334 6.826667 5.12 5.12-1.706667 8.533333-3.413334 11.946666-5.12 6.826667 3.413333 22.186667 6.826667 29.013334 1.706667 3.413333 1.706667 5.12 3.413333 8.533333 0 1.706667-1.706667 3.413333-1.706666 5.12-1.706667 0-3.413333-1.706667-5.12-1.706667-10.24-13.653333-8.533333-30.72-18.773334-42.666666 0-1.706667 0-1.706667 0 0z m8.533334-18.773334c-3.413333 1.706667-5.12 6.826667-3.413334 10.24 0 1.706667 1.706667 1.706667 3.413334 3.413334 1.706667-1.706667 1.706667-1.706667 1.706666-3.413334s0-6.826667-1.706666-10.24c-3.413333 1.706667 1.706667 3.413333 0 0-3.413333 1.706667 1.706667 3.413333 0 0zM448.853333 259.413333c3.413333-3.413333 6.826667-5.12 5.12-10.24l-5.12-25.6c0-1.706667-1.706667-18.773333 5.12-15.36 10.24 8.533333 0 23.893333 6.826667 34.133334h1.706667c0-15.36 13.653333 1.706667 8.533333 1.706666l-6.826667 6.826667c0 1.706667-1.706667 3.413333-1.706666 5.12 1.706667 8.533333 1.706667 15.36 3.413333 25.6 0 3.413333-1.706667 8.533333-3.413333 10.24-1.706667-1.706667-1.706667-3.413333-1.706667-5.12-1.706667-6.826667-1.706667-13.653333-3.413333-18.773333 0 0 0-1.706667-1.706667-3.413334-1.706667 1.706667-3.413333 1.706667-3.413333 3.413334-1.706667 1.706667-5.12 3.413333-6.826667 1.706666-3.413333-1.706667-3.413333-3.413333-1.706667-6.826666 0-3.413333 1.706667-6.826667 1.706667-8.533334 0-3.413333-6.826667-6.826667-5.12-10.24 3.413333-5.12-3.413333-10.24-6.826667-15.36 0 0 23.893333-3.413333 8.533334 10.24 0 1.706667 0 3.413333 1.706666 3.413334 3.413333 1.706667 3.413333 5.12 3.413334 6.826666v8.533334c3.413333-1.706667 1.706667 0 1.706666 1.706666 3.413333-3.413333 0-3.413333 0 0z" fill="#E00B22"></path><path d="M428.373333 820.906667c-5.12 0-8.533333-1.706667-13.653333-1.706667 0 0-1.706667 0-1.706667-1.706667 0 0 5.12-1.706667 5.12-3.413333 3.413333-13.653333 5.12-25.6 0-37.546667-1.706667-6.826667-1.706667-11.946667-3.413333-17.066666 0-1.706667-1.706667-3.413333-3.413333-6.826667H409.6c-1.706667 3.413333-1.706667 8.533333-3.413333 11.946667 0-10.24-1.706667-8.533333-8.533334-13.653334-1.706667 5.12-3.413333 10.24-3.413333 13.653334-3.413333 13.653333-6.826667 27.306667-11.946667 39.253333 0 3.413333-1.706667 5.12 1.706667 6.826667v1.706666c-5.12-1.706667-10.24-3.413333-13.653333-3.413333 1.706667 0 1.706667 0 1.706666-1.706667 3.413333 0 3.413333-1.706667 5.12-3.413333 0-1.706667 10.24-37.546667 13.653334-54.613333v-1.706667c-8.533333-3.413333-8.533333-3.413333-13.653334 8.533333 0-5.12 3.413333-10.24 3.413334-13.653333h1.706666c6.826667 1.706667 13.653333 3.413333 20.48 6.826667 5.12 1.706667 11.946667 1.706667 15.36 3.413333v1.706667c-6.826667 3.413333-1.706667 18.773333 0 23.893333 0 3.413333 1.706667 6.826667 3.413334 10.24l5.12-10.24c1.706667-5.12 3.413333-8.533333 5.12-13.653333 1.706667-3.413333 1.706667-6.826667-1.706667-10.24v-1.706667c3.413333 0 8.533333 1.706667 11.946667 1.706667 0 0 0 1.706667-1.706667 1.706666-3.413333 1.706667-5.12 3.413333-5.12 5.12-1.706667 3.413333-25.6 56.32-11.946667 56.32 5.12 1.706667 5.12 1.706667 5.12 3.413334 1.706667 0 0 0 0 0z"></path><path d="M407.893333 254.293333c6.826667-1.706667 10.24-5.12 13.653334-10.24 1.706667-3.413333 1.706667-5.12 1.706666-8.533333-1.706667-6.826667-3.413333-3.413333-10.24-3.413333v-1.706667l1.706667-1.706667 13.653333-13.653333c1.706667 0 1.706667-1.706667 1.706667-3.413333 1.706667 0 5.12-1.706667 6.826667 0 0 0 5.12 6.826667 0 6.826666-3.413333 1.706667-5.12 3.413333-8.533334 5.12-1.706667 1.706667-3.413333 1.706667-5.12 3.413334 3.413333 1.706667 6.826667 3.413333 6.826667 6.826666 0 0 1.706667 0 1.706667-1.706666 1.706667-1.706667 6.826667 0 6.826666 1.706666 0 3.413333-3.413333 8.533333-5.12 10.24-3.413333 3.413333-1.706667 6.826667 0 10.24 1.706667-1.706667 3.413333-1.706667 5.12-3.413333-5.12 5.12-3.413333 15.36-3.413333 20.48-1.706667 11.946667-8.533333 5.12-8.533333-5.12l-3.413334 3.413333c-8.533333 8.533333-8.533333-1.706667-3.413333-8.533333l5.12-10.24v-5.12c-1.706667 0-1.706667 0-1.706667-1.706667-1.706667 3.413333-3.413333 6.826667-6.826666 8.533334-1.706667 8.533333-5.12 8.533333-8.533334 1.706666 6.826667-1.706667 3.413333 6.826667 0 0 6.826667-1.706667 3.413333 6.826667 0 0z m18.773334 10.24c0-1.706667 0-1.706667 0 0-1.706667 1.706667-3.413333 3.413333-3.413334 5.12h1.706667c0-1.706667 1.706667-3.413333 1.706667-5.12zM626.346667 278.186667c10.24 3.413333 18.773333 3.413333 27.306666-5.12-3.413333-1.706667-6.826667-1.706667-8.533333 0-1.706667 0-3.413333 0-5.12-1.706667-1.706667-3.413333-3.413333-6.826667-3.413333-10.24 8.533333 0 17.066667 5.12 25.6 3.413333 8.533333-3.413333 13.653333-20.48 20.48-27.306666 3.413333 5.12 3.413333 13.653333 0 18.773333-1.706667 3.413333-8.533333 6.826667-8.533334 10.24 6.826667 0 10.24-1.706667 13.653334 5.12-1.706667 3.413333-11.946667 1.706667-13.653334 1.706667-8.533333 0-11.946667 1.706667-18.773333 6.826666-3.413333 5.12-29.013333 13.653333-29.013333-1.706666-1.706667 1.706667-1.706667 1.706667 0 0 8.533333 3.413333 0 1.706667 0 0 8.533333 3.413333 0 1.706667 0 0z" fill="#E00B22"></path><path d="M85.333333 493.226667c1.706667 1.706667 1.706667 1.706667 0 0 1.706667 5.12 3.413333 5.12 6.826667 6.826666 5.12 1.706667 11.946667 1.706667 15.36 1.706667 13.653333 1.706667 23.893333 3.413333 37.546667 5.12 3.413333 0 5.12 0 6.826666-3.413333H153.6c0 5.12-1.706667 10.24-1.706667 13.653333h-1.706666c0-1.706667-3.413333-5.12-5.12-5.12-8.533333-1.706667-17.066667-1.706667-25.6-3.413333 0 5.12-1.706667 10.24-1.706667 15.36 8.533333 1.706667 17.066667 1.706667 25.6 3.413333 1.706667 0 3.413333 0 5.12-3.413333l1.706667-1.706667c0 5.12-1.706667 8.533333-1.706667 13.653333l-1.706667 1.706667c0-5.12-3.413333-5.12-6.826666-5.12-8.533333-1.706667-15.36-1.706667-22.186667-3.413333-10.24-1.706667-17.066667-1.706667-27.306667-3.413334-3.413333 0-6.826667-1.706667-8.533333 3.413334h-1.706667v-1.706667c0-5.12 1.706667-8.533333 1.706667-13.653333l3.413333 3.413333c0 3.413333 1.706667 5.12 5.12 5.12 6.826667 1.706667 13.653333 1.706667 17.066667 3.413333 1.706667 0 5.12 0 8.533333 1.706667 0-5.12 1.706667-10.24 1.706667-15.36-5.12 0-30.72-6.826667-30.72 0H85.333333v-1.706667c-1.706667-8.533333-1.706667-11.946667 0-17.066666 1.706667 1.706667-1.706667 5.12 0 0zM162.133333 404.48c8.533333 5.12 13.653333 8.533333 22.186667 11.946667 1.706667 1.706667 3.413333 1.706667 5.12-1.706667h1.706667c-3.413333 5.12-5.12 8.533333-6.826667 11.946667h-1.706667v-1.706667c1.706667-3.413333 0-5.12-1.706666-5.12-1.706667-1.706667-3.413333-1.706667-5.12-3.413333-13.653333-8.533333-25.6-13.653333-37.546667-22.186667-3.413333-3.413333-6.826667-5.12-10.24-1.706667h-1.706667c1.706667-3.413333 5.12-8.533333 6.826667-11.946666 0 1.706667 1.706667 1.706667 0 1.706666-1.706667 3.413333 0 5.12 1.706667 5.12 5.12 5.12 15.36 8.533333 22.186666 13.653334 3.413333-5.12 5.12-10.24 8.533334-13.653334-8.533333-5.12-15.36-8.533333-23.893334-11.946666-1.706667-1.706667-3.413333-1.706667-5.12 1.706666h-1.706666V375.466667c1.706667-3.413333 3.413333-6.826667 6.826666-11.946667h1.706667v1.706667c-3.413333 3.413333 5.12 6.826667 6.826667 8.533333 13.653333 8.533333 25.6 13.653333 39.253333 22.186667 1.706667 1.706667 3.413333 1.706667 5.12 1.706666 1.706667 1.706667 3.413333 0 5.12-1.706666h1.706667v1.706666l-5.12 10.24s-1.706667 0-1.706667 1.706667v-1.706667c1.706667-3.413333 0-5.12-3.413333-6.826666-6.826667 0-13.653333-5.12-20.48-8.533334-3.413333 3.413333-5.12 6.826667-8.533334 11.946667zM334.506667 733.866667c0 11.946667-8.533333 18.773333-18.773334 23.893333-1.706667 0-1.706667 1.706667-1.706666 1.706667-1.706667 6.826667-6.826667 25.6-1.706667 32.426666v1.706667c-3.413333-1.706667-5.12-3.413333-6.826667-5.12V785.066667c1.706667-10.24 3.413333-18.773333 5.12-29.013334 0-3.413333 0-3.413333-3.413333-5.12-1.706667 3.413333-3.413333 5.12-5.12 8.533334-1.706667 5.12-5.12 8.533333-6.826667 13.653333-1.706667 1.706667-1.706667 5.12 1.706667 6.826667v1.706666c-5.12-1.706667-8.533333-5.12-11.946667-6.826666v-1.706667h5.12c3.413333 3.413333 6.826667-5.12 8.533334-6.826667 8.533333-11.946667 13.653333-25.6 22.186666-39.253333 1.706667-1.706667 1.706667-3.413333 3.413334-5.12-1.706667-1.706667 10.24 3.413333 10.24 11.946667z m-15.36 17.066666c13.653333-10.24 8.533333-34.133333-1.706667-13.653333-1.706667 5.12-5.12 10.24-8.533333 13.653333 3.413333 3.413333 6.826667 3.413333 10.24 0zM933.546667 561.493333c-1.706667 5.12-1.706667 10.24-3.413334 13.653334 0-1.706667-1.706667-1.706667-1.706666-1.706667 0-3.413333-1.706667-3.413333-3.413334-5.12-5.12-1.706667-58.026667-11.946667-58.026666-6.826667h-1.706667c1.706667-5.12 1.706667-8.533333 1.706667-13.653333 0 0 0-1.706667 1.706666-1.706667v1.706667c0 3.413333 23.893333 3.413333 29.013334 8.533333 1.706667-5.12 1.706667-10.24 3.413333-13.653333-5.12-1.706667-27.306667-6.826667-30.72 0 0 0-1.706667 0-1.706667 1.706667 1.706667-5.12 1.706667-8.533333 3.413334-13.653334l1.706666-1.706666c0 3.413333 1.706667 6.826667 5.12 6.826666 17.066667 3.413333 32.426667 6.826667 49.493334 10.24h3.413333c1.706667 0 3.413333-1.706667 5.12-1.706666 0 0 1.706667 0 1.706667-1.706667-1.706667 5.12-1.706667 8.533333-3.413334 13.653333v1.706667c-1.706667-1.706667-3.413333-5.12-5.12-6.826667L904.533333 546.133333c-1.706667 5.12-1.706667 10.24-3.413333 13.653334 3.413333 1.706667 29.013333 8.533333 32.426667 1.706666-1.706667 0-1.706667 0 0 0-1.706667 5.12-1.706667 0 0 0zM829.44 709.973333c3.413333-6.826667-3.413333-6.826667-3.413333-13.653333-10.24-10.24-17.066667-20.48-25.6-32.426667-1.706667-1.706667-1.706667-3.413333-3.413334-3.413333-1.706667-1.706667-3.413333-1.706667-5.12-1.706667h-1.706666v-1.706666c5.12-3.413333 10.24-6.826667 13.653333-10.24 6.826667-3.413333 13.653333 1.706667 18.773333 5.12 10.24 10.24 18.773333 18.773333 22.186667 34.133333 1.706667 6.826667 0 11.946667-6.826667 15.36-1.706667 3.413333-5.12 6.826667-8.533333 8.533333z m3.413333-6.826666c8.533333 0 6.826667-10.24 6.826667-13.653334-5.12-13.653333-13.653333-25.6-25.6-34.133333-1.706667-1.706667-11.946667-1.706667-13.653333 5.12 10.24 13.653333 32.426667 42.666667 32.426666 42.666667zM175.786667 614.4c-6.826667 3.413333-13.653333 5.12-18.773334 8.533333 0 0 1.706667 0 1.706667-1.706666 6.826667-3.413333 17.066667-17.066667 3.413333-18.773334-5.12-1.706667-11.946667 0-15.36 0-11.946667 1.706667-20.48 6.826667-29.013333 11.946667-3.413333 1.706667-5.12 5.12-6.826667 8.533333-3.413333 5.12 0 10.24 5.12 11.946667h1.706667c6.826667-1.706667 13.653333-5.12 20.48-6.826667 3.413333-1.706667 5.12-1.706667 5.12-5.12 0 0 0-1.706667 0 0 0 0 1.706667 0 1.706667 1.706667 1.706667 3.413333 3.413333 6.826667 3.413333 11.946667h-3.413333c-1.706667-3.413333-5.12-1.706667-6.826667-1.706667-6.826667 1.706667-13.653333 5.12-20.48 6.826667h-5.12c-8.533333-5.12-10.24-13.653333-5.12-20.48 5.12-6.826667 13.653333-11.946667 20.48-13.653334 11.946667-5.12 20.48-6.826667 32.426667-5.12 1.706667 0 5.12 1.706667 6.826666 3.413334 5.12-1.706667 6.826667 8.533333 8.533334 8.533333zM831.146667 401.066667c5.12-5.12 15.36-11.946667 15.36-11.946667l-1.706667 1.706667c-1.706667 3.413333-11.946667 11.946667-6.826667 17.066666 3.413333 6.826667 13.653333 1.706667 17.066667 0 11.946667-5.12 20.48-13.653333 29.013333-22.186666 1.706667-3.413333 3.413333-17.066667-1.706666-18.773334h-3.413334c-6.826667 5.12-11.946667 8.533333-17.066666 11.946667-1.706667 1.706667-5.12 3.413333-3.413334 6.826667l-10.24-10.24h1.706667c1.706667 1.706667 5.12 0 6.826667 0 6.826667-5.12 15.36-13.653333 23.893333-13.653334 8.533333 1.706667 11.946667 10.24 10.24 17.066667-5.12 17.066667-29.013333 30.72-44.373333 34.133333h-6.826667c-5.12-1.706667-8.533333-11.946667-8.533333-11.946666zM163.84 590.506667c-1.706667-3.413333-3.413333-3.413333-6.826667-3.413334-18.773333 6.826667-37.546667 13.653333-58.026666 18.773334 13.653333-11.946667 29.013333-23.893333 44.373333-37.546667h-1.706667c-13.653333 5.12-25.6 8.533333-39.253333 11.946667-1.706667 0-1.706667 0-3.413333 1.706666-3.413333 1.706667-5.12 3.413333-3.413334 6.826667 0 0-1.706667 0-1.706666-1.706667-1.706667-3.413333-1.706667-6.826667-3.413334-8.533333v-1.706667h1.706667c3.413333 3.413333 5.12 5.12 6.826667 3.413334 6.826667-1.706667 11.946667-3.413333 15.36-5.12 11.946667-3.413333 20.48-6.826667 32.426666-10.24 3.413333 0 6.826667-1.706667 6.826667-6.826667 0 0 0-1.706667 1.706667-1.706667 1.706667 3.413333 1.706667 6.826667 3.413333 8.533334l-1.706667 1.706666c-13.653333 11.946667-25.6 22.186667-37.546666 34.133334 8.533333-3.413333 17.066667-5.12 25.6-8.533334 5.12-1.706667 10.24-3.413333 13.653333-5.12 1.706667-1.706667 5.12-1.706667 3.413333-5.12l1.706667-1.706666c0 3.413333 1.706667 8.533333 0 10.24-1.706667-3.413333 1.706667-1.706667 0 0zM921.6 500.053333c-11.946667 0-40.96-5.12-49.493333 3.413334 0 0-1.706667 1.706667-3.413334 1.706666V494.933333s0-1.706667 1.706667-1.706666c5.12 11.946667 52.906667 3.413333 64.853333 3.413333h3.413334v1.706667c-17.066667 8.533333-35.84 13.653333-52.906667 22.186666 13.653333 0 29.013333 0 42.666667-1.706666 3.413333 0 6.826667-5.12 8.533333-5.12v13.653333c-3.413333-8.533333-18.773333-5.12-25.6-5.12-8.533333 0-35.84-5.12-39.253333 6.826667 0 0-1.706667 0-3.413334-1.706667 0-1.706667 1.706667-8.533333 1.706667-8.533333 13.653333-5.12 49.493333-18.773333 51.2-18.773334zM645.12 745.813333c1.706667 6.826667 3.413333 11.946667 5.12 18.773334 1.706667 8.533333 3.413333 15.36 5.12 23.893333 0 3.413333 1.706667 6.826667 5.12 5.12v1.706667c-3.413333 1.706667-6.826667 1.706667-8.533333 1.706666h-1.706667v-1.706666c3.413333-1.706667 3.413333-3.413333 1.706667-6.826667-3.413333-15.36-6.826667-34.133333-11.946667-49.493333 0-3.413333-3.413333-6.826667-6.826667-6.826667H631.466667c1.706667-1.706667 5.12-3.413333 8.533333-3.413333 0 0 1.706667 1.706667 3.413333 1.706666 8.533333 13.653333 27.306667 39.253333 27.306667 39.253334-1.706667-5.12-1.706667-10.24-3.413333-13.653334-1.706667-8.533333-8.533333-32.426667-11.946667-32.426666 3.413333-1.706667 10.24-1.706667 11.946667-1.706667-3.413333 1.706667 3.413333 27.306667 5.12 37.546667 1.706667 8.533333 6.826667 27.306667 6.826666 29.013333-13.653333-11.946667-23.893333-29.013333-34.133333-42.666667zM776.533333 689.493333c5.12 5.12 8.533333 11.946667 13.653334 15.36 3.413333 5.12 13.653333 22.186667 20.48 18.773334h1.706666c-3.413333 1.706667-5.12 5.12-8.533333 6.826666H802.133333v-1.706666c3.413333-3.413333-1.706667-6.826667-3.413333-10.24-8.533333-11.946667-17.066667-22.186667-25.6-34.133334-3.413333-3.413333-6.826667-5.12-10.24-3.413333h-1.706667c1.706667-1.706667 5.12-3.413333 6.826667-5.12h3.413333c13.653333 8.533333 39.253333 23.893333 40.96 23.893333 0-1.706667-15.36-20.48-23.893333-30.72-3.413333-3.413333-5.12-1.706667-8.533333-5.12h-1.706667c3.413333-1.706667 6.826667-5.12 10.24-6.826666v1.706666c-3.413333 3.413333 23.893333 37.546667 34.133333 49.493334l1.706667 1.706666c-17.066667-3.413333-32.426667-10.24-47.786667-20.48zM725.333333 718.506667c-1.706667-1.706667-1.706667-3.413333-3.413333-5.12-1.706667-3.413333-3.413333-5.12-8.533333-3.413334-3.413333 1.706667-5.12 1.706667-8.533334 3.413334 3.413333 8.533333 6.826667 15.36 10.24 25.6 3.413333-1.706667 6.826667-1.706667 8.533334-3.413334 1.706667 0 1.706667-3.413333 1.706666-3.413333v-6.826667c3.413333 6.826667 6.826667 17.066667 6.826667 15.36-3.413333-6.826667-13.653333-1.706667-13.653333 0 1.706667 5.12 5.12 25.6 13.653333 25.6 8.533333-3.413333 10.24-6.826667 10.24-15.36 1.706667 5.12 1.706667 11.946667 3.413333 15.36-8.533333 3.413333-15.36 6.826667-23.893333 10.24 0-1.706667 0-1.706667 1.706667-1.706666 3.413333-1.706667 3.413333-3.413333 1.706666-6.826667-3.413333-10.24-15.36-56.32-23.893333-52.906667H699.733333s0-1.706667 1.706667-1.706666c3.413333-1.706667 15.36-8.533333 20.48-10.24 0 6.826667 3.413333 15.36 3.413333 15.36zM863.573333 597.333333c-1.706667 0-3.413333-1.706667-5.12-1.706666-5.12-1.706667-6.826667 0-8.533333 3.413333-1.706667 1.706667-1.706667 5.12-3.413333 6.826667 8.533333 3.413333 15.36 8.533333 23.893333 11.946666 5.12-8.533333 3.413333-10.24-3.413333-17.066666l20.48 10.24c-1.706667 0-3.413333 0-3.413334-1.706667-5.12-1.706667-10.24 6.826667-10.24 8.533333 3.413333 1.706667 18.773333 8.533333 23.893334 11.946667 1.706667 1.706667 3.413333 0 5.12-1.706667 0 0 0-1.706667 1.706666-1.706666 3.413333-8.533333 0-11.946667-6.826666-17.066667 5.12 3.413333 10.24 6.826667 13.653333 10.24-3.413333 8.533333-6.826667 13.653333-11.946667 22.186667l-1.706666 1.706666v-1.706666c1.706667-3.413333-1.706667-5.12-3.413334-6.826667-8.533333-5.12-17.066667-8.533333-25.6-13.653333-6.826667-3.413333-23.893333-15.36-29.013333-8.533334h-1.706667v-1.706666l8.533334-17.066667c10.24-1.706667 11.946667 0 17.066666 3.413333z"></path><path d="M257.706667 764.586667s0-1.706667 0 0c1.706667-1.706667 3.413333-3.413333 5.12-3.413334 1.706667-1.706667 1.706667-3.413333 3.413333-5.12 8.533333-13.653333 13.653333-27.306667 22.186667-39.253333 0-1.706667 1.706667-3.413333 1.706666-3.413333 1.706667-3.413333 1.706667-5.12-1.706666-6.826667h3.413333c6.826667 3.413333 13.653333 8.533333 20.48 11.946667-1.706667 5.12-5.12 8.533333-6.826667 13.653333 0-1.706667 1.706667-3.413333 1.706667-5.12 1.706667-5.12 1.706667-6.826667-3.413333-10.24-1.706667-1.706667-5.12-1.706667-6.826667-3.413333-5.12 8.533333-8.533333 15.36-11.946667 23.893333 3.413333 1.706667 5.12 3.413333 8.533334 3.413333 3.413333 3.413333 8.533333-6.826667 10.24-6.826666-3.413333 6.826667-11.946667 20.48-11.946667 20.48 0-1.706667 1.706667-3.413333 1.706667-5.12 1.706667-3.413333 0-5.12-3.413334-6.826667-1.706667-1.706667-3.413333-1.706667-5.12-3.413333l-1.706666 1.706666c-1.706667 5.12-17.066667 23.893333-10.24 27.306667 8.533333 5.12 18.773333-5.12 20.48-3.413333-8.533333 1.706667-11.946667 5.12-15.36 10.24-8.533333-1.706667-13.653333-6.826667-20.48-10.24zM87.04 488.106667c0-10.24 1.706667-17.066667 1.706667-27.306667 1.706667 0 3.413333 0 5.12 1.706667 18.773333 8.533333 37.546667 13.653333 56.32 22.186666 1.706667 0 1.706667 0 3.413333 1.706667 0-3.413333 1.706667-15.36-3.413333-15.36-1.706667-1.706667-5.12-1.706667-6.826667-1.706667h-3.413333c5.12 0 10.24 1.706667 13.653333 1.706667l1.706667 1.706667c0 8.533333 0 15.36-1.706667 23.893333-20.48-8.533333-40.96-15.36-63.146667-25.6 0 6.826667 8.533333 17.066667 11.946667 18.773333 0-1.706667 0-1.706667 0 0-5.12 0-10.24-1.706667-15.36-1.706666zM319.146667 790.186667c3.413333-6.826667 5.12-13.653333 8.533333-20.48 0 5.12-1.706667 11.946667-1.706667 17.066666 1.706667 5.12 6.826667 6.826667 10.24 1.706667 5.12-5.12 6.826667-11.946667 5.12-17.066667-5.12-15.36-10.24-25.6 1.706667-39.253333 8.533333-8.533333 13.653333 5.12 18.773333 0-3.413333 6.826667-5.12 13.653333-8.533333 20.48 0-6.826667 3.413333-11.946667 0-17.066667-3.413333-11.946667-13.653333 6.826667-13.653333 13.653334 1.706667 5.12 3.413333 10.24 5.12 13.653333 5.12 11.946667-6.826667 47.786667-20.48 29.013333-3.413333-5.12-3.413333-5.12-5.12-1.706666 1.706667-6.826667 1.706667-3.413333 0 0zM170.666667 448.853333s0 1.706667 0 0c-1.706667 5.12-3.413333 6.826667-5.12 10.24v-1.706666c1.706667-3.413333-5.12-8.533333-8.533334-8.533334-10.24-5.12-18.773333-11.946667-29.013333-15.36-5.12-3.413333-8.533333-6.826667-13.653333-10.24-11.946667-17.066667 15.36-17.066667 23.893333-13.653333 11.946667 5.12 20.48 11.946667 32.426667 17.066667 1.706667 1.706667 3.413333 1.706667 6.826666 3.413333 1.706667 1.706667 5.12 1.706667 6.826667-3.413333 0 1.706667 1.706667 1.706667 0 3.413333-1.706667 3.413333-3.413333 6.826667-6.826667 11.946667h-1.706666v-1.706667c1.706667-1.706667 0-3.413333-1.706667-5.12l-1.706667-1.706667c-10.24-5.12-20.48-11.946667-30.72-17.066666-3.413333-1.706667-32.426667-11.946667-23.893333 3.413333 1.706667 3.413333 3.413333 6.826667 6.826667 8.533333 8.533333 8.533333 25.6 15.36 37.546666 20.48 1.706667 1.706667 3.413333 1.706667 5.12 1.706667 0 1.706667 0 1.706667 3.413334-1.706667zM549.546667 762.88c-3.413333-5.12-10.24-11.946667-13.653334-3.413333-3.413333 11.946667 5.12 15.36 13.653334 22.186666 10.24 8.533333 13.653333 18.773333 13.653333 30.72-1.706667 6.826667-5.12 8.533333-11.946667 6.826667-3.413333-1.706667-5.12-1.706667-5.12 3.413333-1.706667-8.533333-5.12-22.186667-5.12-22.186666 0 1.706667 1.706667 3.413333 1.706667 5.12 1.706667 1.706667 8.533333 15.36 13.653333 11.946666 10.24-5.12-1.706667-23.893333-8.533333-27.306666-10.24-6.826667-17.066667-18.773333-11.946667-30.72 3.413333-11.946667 13.653333 1.706667 13.653334-8.533334 0 6.826667 1.706667 15.36 3.413333 22.186667-1.706667-1.706667-3.413333-8.533333-3.413333-10.24zM631.466667 749.226667c0-1.706667-5.12-10.24-10.24-8.533334-1.706667 0-5.12 1.706667-8.533334 1.706667 1.706667 8.533333 3.413333 17.066667 6.826667 25.6 10.24 0 10.24-3.413333 10.24-11.946667 1.706667 8.533333 3.413333 13.653333 5.12 22.186667 0-1.706667-6.826667-10.24-13.653333-10.24 1.706667 10.24 3.413333 17.066667 6.826666 25.6 0 1.706667 1.706667 3.413333 3.413334 1.706667 10.24-1.706667 10.24-6.826667 10.24-15.36 0 5.12 0 11.946667 1.706666 15.36-8.533333 1.706667-13.653333 3.413333-22.186666 6.826666h-1.706667c5.12 0 5.12-1.706667 5.12-5.12-1.706667-6.826667-3.413333-13.653333-5.12-17.066666-3.413333-11.946667-5.12-22.186667-8.533333-34.133334 0-3.413333-1.706667-5.12-5.12-5.12 0 0-1.706667-1.706667 0-1.706666 5.12-1.706667 20.48-5.12 22.186666-5.12 1.706667 5.12 3.413333 15.36 3.413334 15.36zM104.106667 424.96s1.706667 0 0 0c1.706667 5.12 5.12 6.826667 6.826666 8.533333 11.946667 6.826667 20.48 13.653333 32.426667 20.48 5.12 3.413333 11.946667 8.533333 15.36 11.946667l1.706667 1.706667c-3.413333 0-6.826667-1.706667-11.946667-1.706667-17.066667-3.413333-34.133333-6.826667-51.2-8.533333-3.413333 0-5.12 0-6.826667 1.706666v-1.706666c1.706667-3.413333 3.413333-6.826667 3.413334-10.24l1.706666-1.706667c3.413333 0 0 5.12 5.12 5.12 5.12 1.706667 10.24 1.706667 13.653334 3.413333 0 0 1.706667 0 1.706666-1.706666 1.706667-3.413333 3.413333-8.533333 5.12-11.946667-5.12-3.413333-10.24-6.826667-13.653333-8.533333-1.706667-1.706667-3.413333-1.706667-5.12 0h-3.413333c1.706667 0 3.413333-3.413333 5.12-6.826667z m13.653333 30.72c10.24 1.706667 17.066667 3.413333 25.6 5.12-5.12-6.826667-13.653333-11.946667-20.48-15.36-1.706667 1.706667-3.413333 5.12-5.12 10.24zM826.026667 392.533333c-3.413333-3.413333-6.826667-6.826667-10.24-11.946666h1.706666c3.413333 1.706667 6.826667-3.413333 8.533334-3.413334 5.12-8.533333 10.24-13.653333 13.653333-22.186666-1.706667 0-13.653333 6.826667-20.48 10.24-1.706667 0-3.413333 1.706667-3.413333 1.706666-1.706667 1.706667-3.413333 3.413333-3.413334 6.826667v1.706667h-1.706666c-1.706667-3.413333-5.12-5.12-8.533334-8.533334h1.706667c3.413333 1.706667 5.12 0 8.533333 0 10.24-5.12 29.013333-13.653333 30.72-13.653333 3.413333-3.413333 20.48-13.653333 17.066667-20.48v-1.706667c3.413333 3.413333 6.826667 8.533333 10.24 11.946667-1.706667 0-5.12-1.706667-6.826667 0-8.533333 6.826667-15.36 11.946667-20.48 20.48-3.413333 8.533333-17.066667 23.893333-17.066666 29.013333 1.706667-1.706667 1.706667-1.706667 0 0 0-1.706667 0-1.706667 0 0-3.413333-3.413333 0-1.706667 0 0zM515.413333 750.933333v13.653334c0-1.706667 0-3.413333-1.706666-5.12-1.706667-6.826667-6.826667-5.12-11.946667-5.12v27.306666c10.24 0 5.12-1.706667 11.946667-8.533333v22.186667c-3.413333-6.826667-1.706667-10.24-11.946667-10.24v1.706666c0 3.413333-3.413333 30.72 3.413333 30.72h1.706667c-3.413333 3.413333-8.533333 1.706667-13.653333 1.706667l-1.706667-1.706667 1.706667-1.706666c6.826667 0 3.413333-52.906667 3.413333-61.44 0-1.706667-1.706667-3.413333-3.413333-5.12h-1.706667l1.706667-1.706667c6.826667 3.413333 13.653333 3.413333 22.186666 3.413333 0 3.413333-8.533333 0 0 0zM245.76 742.4c5.12-6.826667 35.84-30.72 30.72-39.253333v-1.706667l10.24 5.12c-3.413333 1.706667-29.013333 27.306667-37.546667 37.546667l-13.653333 13.653333c0-1.706667 0-1.706667 1.706667-3.413333 6.826667-17.066667 11.946667-35.84 17.066666-54.613334 1.706667-3.413333 3.413333-6.826667 0-10.24v-1.706666c3.413333 1.706667 6.826667 5.12 11.946667 6.826666v1.706667h-1.706667c-3.413333 0-5.12 1.706667-6.826666 5.12l-10.24 30.72c0 1.706667-1.706667 5.12-1.706667 10.24-1.706667-1.706667 0 0 0 0zM701.44 735.573333c-1.706667-3.413333-8.533333-13.653333-11.946667-13.653333-5.12-3.413333-8.533333-1.706667-11.946666 3.413333-1.706667 5.12 5.12 34.133333 11.946666 42.666667 1.706667 3.413333 18.773333 10.24 20.48 1.706667v-8.533334c0 6.826667-1.706667 27.306667-13.653333 18.773334-3.413333-1.706667-6.826667-5.12-10.24-8.533334-10.24-13.653333-20.48-37.546667-11.946667-54.613333 3.413333-10.24 17.066667 0 13.653334-8.533333 8.533333 13.653333 11.946667 20.48 13.653333 27.306666zM771.413333 754.346667s-1.706667 0 0 0c1.706667-6.826667-6.826667-18.773333-8.533333-25.6-5.12-11.946667-10.24-23.893333-17.066667-35.84 0-1.706667-1.706667-1.706667 0-3.413334l1.706667 1.706667c13.653333 11.946667 27.306667 22.186667 39.253333 34.133333 1.706667 1.706667 3.413333 3.413333 5.12 3.413334 1.706667 1.706667 3.413333 1.706667 5.12 1.706666 0 0 1.706667 0 1.706667 1.706667-3.413333 3.413333-6.826667 5.12-10.24 8.533333v-1.706666c3.413333-6.826667-8.533333-13.653333-13.653333-15.36-3.413333 3.413333-6.826667 5.12-10.24 8.533333 1.706667 5.12 5.12 10.24 6.826666 13.653333 1.706667 1.706667 3.413333 3.413333 5.12 1.706667h3.413334c-3.413333 5.12-5.12 6.826667-8.533334 6.826667z m-17.066666-49.493334s0 1.706667 0 0c3.413333 8.533333 6.826667 15.36 11.946666 23.893334 3.413333-1.706667 6.826667-5.12 8.533334-6.826667-8.533333-5.12-15.36-10.24-20.48-17.066667zM882.346667 571.733333c-5.12 0-20.48 8.533333-17.066667 13.653334 1.706667 1.706667 5.12 3.413333 6.826667 5.12 8.533333 5.12 17.066667 6.826667 27.306666 8.533333 6.826667 0 18.773333 1.706667 23.893334-3.413333 5.12-5.12 0-17.066667-6.826667-17.066667 1.706667 0 3.413333 1.706667 5.12 1.706667 13.653333 6.826667 13.653333 22.186667-3.413333 23.893333-15.36 1.706667-32.426667-1.706667-44.373334-10.24-3.413333-1.706667-6.826667-5.12-8.533333-8.533333-3.413333-5.12-3.413333-10.24 1.706667-13.653334-1.706667 0 0 0 1.706666-1.706666-5.12 0 6.826667 0 13.653334 1.706666zM595.626667 793.6c0 5.12 0 10.24-1.706667 13.653333-5.12 10.24-15.36 5.12-18.773333-3.413333-10.24-13.653333-11.946667-32.426667-10.24-47.786667 0-3.413333 1.706667-6.826667 3.413333-10.24 3.413333-5.12 6.826667-5.12 11.946667-1.706666 3.413333 1.706667 3.413333 1.706667 3.413333-1.706667v-1.706667l5.12 20.48c0-1.706667 0-1.706667-1.706667-3.413333-1.706667-3.413333-3.413333-8.533333-6.826666-10.24-5.12-5.12-10.24-3.413333-13.653334 3.413333-6.826667 6.826667 1.706667 35.84 5.12 42.666667 6.826667 11.946667 20.48 17.066667 20.48-1.706667 3.413333 3.413333 3.413333 1.706667 3.413334 1.706667zM829.44 640c5.12-8.533333 8.533333-15.36 13.653333-23.893333 5.12 1.706667 10.24 5.12 13.653334 6.826666h-1.706667c-1.706667 0-1.706667 0-3.413333-1.706666-6.826667-1.706667-8.533333 0-11.946667 6.826666l1.706667 1.706667c13.653333 8.533333 29.013333 15.36 42.666666 22.186667 1.706667 1.706667 3.413333 1.706667 5.12 1.706666 1.706667 1.706667 3.413333 1.706667 5.12-1.706666h1.706667v1.706666c-1.706667 3.413333-3.413333 8.533333-6.826667 11.946667 0-1.706667-1.706667-1.706667 0-1.706667 0-1.706667 0-3.413333-1.706666-5.12l-1.706667-1.706666C870.4 648.533333 853.333333 640 836.266667 631.466667c-1.706667 3.413333-5.12 5.12-1.706667 8.533333 1.706667 3.413333 5.12 5.12 6.826667 6.826667-3.413333-1.706667-8.533333-3.413333-11.946667-6.826667 3.413333-8.533333 3.413333 3.413333 0 0zM926.72 428.373333c1.706667 8.533333 1.706667 15.36 3.413333 23.893334v1.706666c-5.12-8.533333-13.653333-3.413333-20.48-3.413333-13.653333 1.706667-23.893333 3.413333-37.546666 6.826667-3.413333 0-8.533333 0-8.533334 6.826666h-1.706666c0-5.12-1.706667-10.24-1.706667-15.36 1.706667 0 1.706667 1.706667 1.706667 1.706667 1.706667 3.413333 3.413333 3.413333 5.12 3.413333 6.826667-1.706667 13.653333-1.706667 17.066666-3.413333l30.72-5.12c6.826667-1.706667 6.826667-1.706667 6.826667-8.533333-1.706667-6.826667-1.706667-8.533333 5.12-8.533334zM196.266667 728.746667c3.413333 1.706667 5.12 0 6.826666 0l3.413334-3.413334c11.946667-13.653333 34.133333-37.546667 34.133333-37.546666 1.706667-1.706667 1.706667-3.413333 0-5.12v-1.706667h1.706667c3.413333 3.413333 6.826667 5.12 10.24 8.533333v1.706667h-1.706667c-1.706667-1.706667-29.013333 29.013333-37.546667 39.253333 0 1.706667-3.413333 6.826667-1.706666 8.533334v1.706666h-1.706667c-6.826667-6.826667-10.24-10.24-13.653333-11.946666zM378.88 744.106667c-3.413333 0-5.12 0-6.826667 3.413333-3.413333 6.826667-23.893333 52.906667-17.066666 56.32-5.12-1.706667-11.946667-5.12-11.946667-6.826667 5.12 1.706667 6.826667-1.706667 6.826667-5.12 6.826667-15.36 11.946667-32.426667 18.773333-47.786666 1.706667-3.413333 1.706667-5.12-1.706667-6.826667v-1.706667h1.706667c3.413333 3.413333 6.826667 5.12 10.24 8.533334 0-1.706667 0 0 0 0zM600.746667 805.546667c3.413333-1.706667 5.12-3.413333 3.413333-6.826667-1.706667-11.946667-8.533333-56.32-15.36-56.32l-1.706667-1.706667c6.826667-1.706667 13.653333-3.413333 13.653334-1.706666-3.413333 3.413333-3.413333 5.12-3.413334 10.24 1.706667 10.24 10.24 42.666667 11.946667 49.493333 0 3.413333 1.706667 5.12 5.12 5.12v3.413333c-3.413333 1.706667-8.533333 1.706667-11.946667 3.413334 0-5.12-1.706667-5.12-1.706666-5.12z"></path><path d="M679.253333 307.2c-5.12 0-10.24 0-15.36-1.706667-6.826667-3.413333 0-18.773333 0-25.6l1.706667-1.706666 1.706667 1.706666c0 5.12 0 11.946667 3.413333 17.066667 0 1.706667 8.533333 8.533333 8.533333 10.24-5.12 0 0 0 0 0z" fill="#E00B22"></path><path d="M436.906667 670.72c1.706667-6.826667 1.706667-11.946667 3.413333-17.066667 0-1.706667 1.706667-1.706667 3.413333-1.706666-1.706667 5.12-1.706667 10.24-3.413333 15.36 0 3.413333-1.706667 6.826667-1.706667 8.533333 0 1.706667-1.706667 1.706667-1.706666 1.706667l-1.706667-1.706667c-1.706667-5.12-1.706667-11.946667-3.413333-17.066667 0 3.413333-1.706667 6.826667-1.706667 10.24 0 3.413333-1.706667 5.12-1.706667 8.533334H426.666667s-1.706667 0-1.706667-1.706667c-1.706667-8.533333-3.413333-15.36-5.12-25.6 1.706667-1.706667 3.413333 0 3.413333 1.706667 1.706667 5.12 1.706667 10.24 3.413334 13.653333 0 1.706667 0 1.706667 1.706666 3.413333 1.706667-6.826667 1.706667-11.946667 3.413334-17.066666 0-1.706667 1.706667-1.706667 1.706666-1.706667l1.706667 1.706667c0 6.826667 0 13.653333 1.706667 18.773333zM513.706667 651.946667v25.6c-1.706667 1.706667-1.706667 0-3.413334-1.706667-3.413333-6.826667-5.12-13.653333-8.533333-18.773333v20.48l-1.706667 1.706666h-1.706666v-25.6c1.706667 0 3.413333 0 5.12 1.706667 1.706667 5.12 5.12 11.946667 8.533333 15.36v-6.826667c0-3.413333 0-6.826667 1.706667-11.946666-3.413333 0-1.706667 0 0 0zM580.266667 679.253333c-5.12-8.533333-8.533333-13.653333-11.946667-20.48v18.773334s0 1.706667-1.706667 1.706666l-1.706666-1.706666v-23.893334c1.706667-1.706667 3.413333 0 5.12 1.706667 1.706667 6.826667 5.12 11.946667 8.533333 15.36v-18.773333l1.706667 1.706666v25.6zM541.013333 651.946667c1.706667 0 3.413333 0 3.413334 1.706666v6.826667c0 1.706667 0 3.413333 1.706666 1.706667h6.826667v-11.946667h3.413333v25.6c0 1.706667 0 3.413333-3.413333 1.706667V665.6h-8.533333l-1.706667 1.706667v10.24h-1.706667l-1.706666-1.706667c1.706667-6.826667 1.706667-15.36 1.706666-23.893333zM465.92 651.946667h3.413333v8.533333c0 1.706667 0 3.413333 3.413334 1.706667h6.826666v-11.946667c1.706667 0 3.413333 0 3.413334 1.706667v22.186666c0 1.706667 0 1.706667-3.413334 1.706667v-11.946667h-10.24v10.24c0 1.706667 0 3.413333-3.413333 1.706667v-23.893333zM457.386667 651.946667h3.413333v18.773333c0 5.12-3.413333 6.826667-6.826667 6.826667s-6.826667-1.706667-6.826666-6.826667v-20.48h1.706666v20.48c0 1.706667 1.706667 3.413333 5.12 3.413333 1.706667 0 3.413333-1.706667 5.12-3.413333V665.6c-1.706667-3.413333-1.706667-8.533333-1.706666-13.653333z" fill="#132D81"></path><path d="M498.346667 679.253333c-1.706667 0-3.413333 0-3.413334-1.706666v-1.706667c0-3.413333-1.706667-3.413333-5.12-3.413333s-5.12 1.706667-5.12 3.413333 0 5.12-3.413333 3.413333c1.706667-8.533333 3.413333-17.066667 6.826667-25.6h3.413333c1.706667 6.826667 3.413333 15.36 6.826667 25.6z m-5.12-10.24c-1.706667-5.12-1.706667-8.533333-3.413334-13.653333-1.706667 5.12-1.706667 8.533333-3.413333 13.653333h6.826667zM599.04 679.253333c-1.706667 0-3.413333 0-3.413333-1.706666v-3.413334c0-3.413333-1.706667-3.413333-3.413334-3.413333-5.12 0-3.413333 0-5.12 5.12 0 3.413333 0 3.413333-3.413333 3.413333 1.706667-6.826667 3.413333-11.946667 3.413333-17.066666 0-1.706667 1.706667-5.12 1.706667-6.826667l1.706667-1.706667 1.706666 1.706667c3.413333 6.826667 5.12 15.36 6.826667 23.893333z m-5.12-10.24c0-5.12-1.706667-10.24-1.706667-13.653333-1.706667 5.12-1.706667 8.533333-3.413333 13.653333h5.12zM534.186667 658.773333c-1.706667-3.413333-1.706667-5.12-5.12-5.12-3.413333 0-3.413333 3.413333-5.12 5.12v11.946667c0 1.706667 1.706667 5.12 5.12 5.12 3.413333 0 3.413333-1.706667 5.12-3.413333v-1.706667c1.706667 0 1.706667 0 1.706666 1.706667-1.706667 3.413333-3.413333 6.826667-6.826666 6.826666s-5.12-1.706667-6.826667-5.12c-1.706667-6.826667-1.706667-11.946667 0-17.066666 1.706667-3.413333 3.413333-5.12 6.826667-5.12s5.12 1.706667 5.12 5.12c3.413333 1.706667 3.413333 1.706667 0 1.706666zM559.786667 651.946667c1.706667 8.533333 1.706667 17.066667 1.706666 25.6h-1.706666v-25.6zM337.92 624.64l3.413333-3.413333v5.12s-1.706667-1.706667-3.413333-1.706667zM665.6 624.64c0 1.706667 1.706667 5.12-1.706667 6.826667l-1.706666-1.706667c0-3.413333 0-5.12 3.413333-5.12zM663.893333 614.4l3.413334-3.413333 1.706666-1.706667c0 5.12-1.706667 5.12-5.12 5.12-1.706667 0 0 0 0 0z" fill="#132D81"></path><path d="M493.226667 669.013333h-6.826667c1.706667-5.12 1.706667-8.533333 3.413333-13.653333 1.706667 3.413333 1.706667 8.533333 3.413334 13.653333zM593.92 669.013333h-6.826667c1.706667-5.12 1.706667-8.533333 3.413334-13.653333 1.706667 3.413333 3.413333 8.533333 3.413333 13.653333z" fill="#FFFFFF"></path><path d="M628.053333 621.226667c0-5.12 0-6.826667-3.413333-5.12-3.413333 0-5.12 3.413333-8.533333 3.413333 0-1.706667 1.706667-3.413333 1.706666-3.413333 3.413333-3.413333 5.12-1.706667 10.24-1.706667 0 0 0-1.706667 1.706667-1.706667l-1.706667-1.706666c-1.706667 0-1.706667 0-3.413333-1.706667 3.413333-3.413333 3.413333-3.413333 0-5.12-6.826667 8.533333-13.653333 15.36-17.066667 22.186667 5.12-3.413333 11.946667-5.12 15.36-8.533334v1.706667c0 1.706667-1.706667 1.706667-1.706666 3.413333l-1.706667-1.706666h-1.706667c0 10.24-3.413333 13.653333 10.24 13.653333 0-3.413333-1.706667-5.12-1.706666-8.533333h-1.706667c0 1.706667 0 8.533333-3.413333 5.12-1.706667 0-1.706667-5.12-1.706667-6.826667 6.826667 1.706667 8.533333 1.706667 8.533333-3.413333zM641.706667 600.746667c0 5.12 1.706667 35.84-3.413334 34.133333-1.706667 0-3.413333-1.706667-5.12-1.706667 0 1.706667 1.706667 3.413333 3.413334 3.413334 17.066667 17.066667 10.24-22.186667 10.24-29.013334v-1.706666c0-5.12-1.706667-5.12-5.12-5.12 0 0 3.413333 0 0 0z" fill="#FFFFFF"></path><path d="M633.173333 612.693333v8.533334l1.706667 1.706666 1.706667-1.706666v-3.413334c0-5.12 0-5.12-3.413334-5.12 0 3.413333 3.413333 0 0 0z" fill="#FFFFFF"></path><path d="M663.893333 614.4zM680.96 619.52c-1.706667 0 0 6.826667 0 0z" fill="#FFFFFF"></path><path d="M689.493333 612.693333s-1.706667-1.706667-3.413333 0c-3.413333 0-5.12 1.706667-8.533333 1.706667h-1.706667c0-3.413333 1.706667-3.413333 3.413333-5.12 1.706667 0 3.413333 0 3.413334-1.706667 0 0 1.706667-1.706667 1.706666-3.413333-3.413333 0-8.533333-3.413333-11.946666 1.706667l-1.706667 1.706666c-3.413333 0-6.826667 1.706667-10.24 3.413334 0 1.706667 0 1.706667 1.706667 3.413333 0 0 1.706667 0 3.413333-1.706667 0 1.706667-1.706667 1.706667-1.706667 3.413334V614.4l-1.706666 1.706667-1.706667 1.706666 1.706667 1.706667h3.413333v1.706667c-3.413333 1.706667-8.533333 3.413333-11.946667 3.413333 1.706667 5.12 3.413333 0 6.826667 1.706667-1.706667 1.706667-1.706667 3.413333-3.413333 5.12h3.413333s0-1.706667 1.706667-1.706667c3.413333 3.413333 8.533333 5.12 8.533333-1.706667 1.706667 0 1.706667-1.706667 3.413333-1.706666l-1.706666-1.706667c1.706667 0 3.413333-5.12 3.413333-5.12v-1.706667c3.413333 1.706667 5.12 0 8.533333 0 0 1.706667 0 20.48 1.706667 18.773334 3.413333-5.12-3.413333-25.6 8.533333-22.186667-3.413333 0-5.12-1.706667-5.12-1.706667z" fill="#FFFFFF"></path><path d="M669.013333 597.333333c-5.12 3.413333-3.413333 5.12 0 8.533334 1.706667 0 3.413333 0 1.706667-1.706667 0-3.413333 0-5.12-1.706667-6.826667-3.413333 1.706667 1.706667 1.706667 0 0z" fill="#FFFFFF"></path><path d="M566.613333 634.88c0-1.706667-1.706667-1.706667-1.706666-3.413333-1.706667-1.706667-5.12-1.706667-6.826667-1.706667-5.12-1.706667-6.826667-5.12-10.24-8.533333 3.413333-1.706667 5.12-3.413333 8.533333-5.12 0-5.12-6.826667 1.706667-8.533333 1.706666H546.133333V614.4l1.706667-1.706667c1.706667 0 3.413333-1.706667 5.12-1.706666-1.706667-3.413333-1.706667-3.413333-6.826667-3.413334 0-3.413333 0-6.826667 1.706667-11.946666 0 0-1.706667 0-3.413333-1.706667 0 8.533333 1.706667 11.946667-8.533334 13.653333h-5.12c1.706667 5.12 1.706667 5.12 5.12 3.413334 1.706667 0 3.413333 0 6.826667-1.706667 0 8.533333 3.413333 18.773333-6.826667 18.773333v1.706667c3.413333 1.706667 8.533333 5.12 11.946667 6.826667v-15.36c3.413333 1.706667 6.826667 3.413333 8.533333 6.826666l1.706667 1.706667c1.706667 6.826667 5.12 5.12 8.533333 5.12z" fill="#FFFFFF"></path><path d="M534.186667 619.52c-1.706667 0-1.706667 0 0 0-5.12 5.12 3.413333 6.826667 6.826666 5.12-3.413333-3.413333-5.12-5.12-6.826666-5.12z" fill="#FFFFFF"></path><path d="M539.306667 624.64l-11.946667 11.946667-1.706667-1.706667v-1.706667c6.826667-3.413333 10.24-6.826667 13.653334-8.533333zM552.96 604.16c1.706667 1.706667 3.413333 1.706667 5.12 3.413333 0 0 0 1.706667 1.706667 1.706667h-1.706667c-5.12 1.706667-6.826667 0-5.12-5.12 1.706667 1.706667-1.706667 5.12 0 0z" fill="#FFFFFF"></path><path d="M595.626667 614.4c1.706667-1.706667 0-5.12 0 0z" fill="#FFFFFF"></path><path d="M605.866667 634.88c-5.12-1.706667-10.24-3.413333-13.653334-5.12-8.533333 0 1.706667-5.12 1.706667-6.826667 1.706667 0 1.706667-1.706667 1.706667-1.706666-1.706667-1.706667-3.413333-1.706667-6.826667-1.706667v-1.706667c3.413333 0 15.36-6.826667 6.826667-6.826666 1.706667 0 0 1.706667-1.706667 1.706666 0-6.826667 6.826667-17.066667-5.12-15.36-8.533333 1.706667-15.36 3.413333-8.533333 13.653334 0 3.413333 1.706667 3.413333 3.413333 1.706666 3.413333-1.706667 3.413333-1.706667 6.826667 1.706667-6.826667 1.706667-13.653333 3.413333-18.773334 5.12 0 0-1.706667 0-1.706666 1.706667v1.706666h1.706666c3.413333 0 5.12-1.706667 8.533334-1.706666v1.706666c-3.413333 5.12-6.826667 8.533333-13.653334 11.946667 5.12 1.706667 10.24 0 11.946667-3.413333 0-1.706667 1.706667-1.706667 3.413333-1.706667 3.413333 1.706667 8.533333 3.413333 11.946667 5.12 1.706667 0 1.706667 1.706667 3.413333 3.413333l1.706667 1.706667c5.12 0 11.946667 1.706667 13.653333-1.706667v-1.706666c-3.413333 0-5.12-1.706667-6.826666-1.706667z m-20.48-27.306667l5.12-5.12c-1.706667 0-1.706667 0-3.413334-1.706666h-1.706666c1.706667 0 3.413333-1.706667 5.12-1.706667 0 3.413333 1.706667 6.826667 1.706666 10.24-1.706667 0-3.413333-1.706667-6.826666-1.706667z m1.706666 18.773334c-1.706667-1.706667-3.413333-1.706667-3.413333-5.12l1.706667-1.706667 1.706666 1.706667v5.12z" fill="#FFFFFF"></path><path d="M348.16 605.866667c0 5.12 0 10.24-1.706667 13.653333 0 3.413333-1.706667 5.12-3.413333 8.533333-1.706667 1.706667-1.706667 3.413333-3.413333 5.12 5.12 0 6.826667-1.706667 8.533333-3.413333 1.706667-5.12 3.413333-10.24 8.533333-11.946667l1.706667-1.706666s-1.706667 0-1.706667-1.706667h-3.413333c0-3.413333 1.706667-3.413333 3.413333-5.12 0 0 0-1.706667 1.706667-1.706667h-3.413333v-1.706666c0-1.706667 1.706667-3.413333 3.413333-3.413334-3.413333 1.706667-5.12 1.706667-10.24 3.413334zM343.04 604.16c-5.12-1.706667-8.533333 0-13.653333 1.706667l-1.706667 1.706666c0 5.12 3.413333 15.36-5.12 17.066667 5.12 5.12 10.24-1.706667 13.653333-5.12 0-1.706667 0-3.413333 1.706667-5.12 1.706667 0 1.706667-1.706667 0-3.413333l-1.706667-1.706667c0-1.706667 1.706667-3.413333 1.706667-3.413333 3.413333 0 1.706667 10.24 0 11.946666 0 0-1.706667 0-1.706667 1.706667l5.12 5.12c1.706667-6.826667 1.706667-11.946667 1.706667-20.48 1.706667 0 1.706667 0 0 0z" fill="#FFFFFF"></path><path d="M363.52 602.453333H358.4l1.706667 1.706667c1.706667 3.413333 0 10.24 0 15.36 0 8.533333 1.706667 11.946667-8.533334 11.946667v1.706666c3.413333 1.706667 8.533333 3.413333 11.946667 5.12 0-11.946667-1.706667-23.893333 0-35.84zM358.4 604.16s0-1.706667 0 0c0-1.706667 0-1.706667 0 0z" fill="#FFFFFF"></path><path d="M423.253333 626.346667c0 1.706667 1.706667 1.706667 3.413334 1.706666 3.413333-1.706667 8.533333-1.706667 11.946666-3.413333v3.413333c0 5.12-3.413333 5.12-8.533333 5.12 3.413333 3.413333 6.826667 5.12 10.24 5.12l1.706667-1.706666c0-5.12 3.413333-17.066667 11.946666-10.24h1.706667c0-6.826667-8.533333-5.12-13.653333-5.12v-1.706667c1.706667 0 1.706667-1.706667 3.413333-1.706667 3.413333-3.413333-3.413333-5.12-5.12-3.413333-3.413333 1.706667-8.533333 1.706667-11.946667 3.413333 3.413333 5.12 8.533333-1.706667 13.653334-1.706666 0 5.12-5.12 1.706667-5.12 6.826666-1.706667 1.706667-8.533333 3.413333-13.653334 3.413334z" fill="#FFFFFF"></path><path d="M430.08 605.866667c0-3.413333 11.946667-5.12 13.653333-5.12 0-3.413333-5.12-3.413333-8.533333 0-1.706667 0-3.413333 1.706667-5.12 0-3.413333-1.706667-3.413333 0-3.413333 3.413333-1.706667 10.24-5.12 18.773333-11.946667 27.306667-1.706667 0-3.413333 0-3.413333 1.706666 1.706667 0 8.533333-1.706667 8.533333-5.12 1.706667-5.12 5.12-11.946667 6.826667-17.066666 0 1.706667 1.706667 1.706667 1.706666 3.413333 1.706667 5.12 1.706667 5.12 6.826667 3.413333 1.706667 0 5.12-1.706667 6.826667 0 1.706667 0 1.706667 0 3.413333-1.706666 1.706667-3.413333 1.706667-5.12 3.413333-8.533334-6.826667-6.826667-13.653333-1.706667-18.773333-1.706666z m11.946667 3.413333c0 1.706667 0 1.706667 0 0-1.706667 1.706667-10.24 5.12-10.24 1.706667 0-3.413333 1.706667-5.12 6.826666-5.12 3.413333-1.706667 5.12 0 3.413334 3.413333z" fill="#FFFFFF"></path><path d="M435.2 609.28c1.706667 1.706667 3.413333 1.706667 5.12 1.706667-1.706667-1.706667-1.706667-1.706667 0-3.413334 0 0-3.413333 0-5.12 1.706667z" fill="#FFFFFF"></path><path d="M377.173333 622.933333v3.413334c0 3.413333-1.706667 5.12 1.706667 6.826666 0-3.413333 3.413333-8.533333 3.413333-13.653333v-1.706667c-3.413333-3.413333-3.413333-3.413333 0-5.12l1.706667-1.706666c1.706667-1.706667 1.706667-3.413333 0-3.413334-1.706667-1.706667-10.24 11.946667-11.946667 13.653334 0 1.706667-1.706667 1.706667-1.706666 3.413333M402.773333 622.933333s0 1.706667 0 0c1.706667 3.413333 3.413333 5.12 5.12 5.12h3.413334c1.706667-1.706667 0-3.413333-1.706667-5.12h-6.826667z" fill="#FFFFFF"></path><path d="M395.946667 607.573333c1.706667-1.706667 6.826667-1.706667 10.24-1.706666 0-1.706667 0-1.706667-1.706667-1.706667h-6.826667v-5.12s0-1.706667-1.706666-1.706667l-1.706667 1.706667c0 5.12-3.413333 8.533333-8.533333 8.533333l6.826666 1.706667c-1.706667 0-3.413333 1.706667-3.413333 1.706667-3.413333 1.706667-3.413333 1.706667-1.706667 5.12 0 0 0 1.706667 1.706667 1.706666 3.413333 3.413333 6.826667-1.706667 11.946667 1.706667 0 0 1.706667 0 3.413333-1.706667 1.706667-3.413333 3.413333-5.12 5.12-8.533333-6.826667-1.706667-11.946667-1.706667-13.653333-1.706667z m0 8.533334c0-1.706667 1.706667-3.413333 1.706666-6.826667 3.413333 3.413333 1.706667 5.12-1.706666 6.826667z" fill="#FFFFFF"></path><path d="M392.533333 609.28c-6.826667-1.706667-1.706667 0 0 0zM397.653333 622.933333c-5.12-5.12-8.533333-1.706667-13.653333-1.706666 1.706667 1.706667-1.706667 6.826667-3.413333 8.533333 0 1.706667 1.706667 1.706667 3.413333 1.706667 1.706667-3.413333 1.706667-5.12 3.413333-6.826667 1.706667 1.706667 0 6.826667 3.413334 8.533333 1.706667 1.706667 15.36 3.413333 15.36 0 0-1.706667-6.826667-10.24-8.533334-10.24z m-1.706666 1.706667c0 1.706667-1.706667 1.706667-3.413334 0h3.413334z m3.413333 5.12c-5.12 3.413333-8.533333 0-8.533333-3.413333v-1.706667c1.706667 1.706667 1.706667 3.413333 3.413333 5.12 1.706667 0 3.413333-1.706667 5.12-1.706667 0 0 1.706667 1.706667 0 1.706667z" fill="#FFFFFF"></path><path d="M469.333333 634.88c11.946667 11.946667 6.826667-11.946667 17.066667-11.946667 13.653333 0-6.826667-6.826667-6.826667-6.826666 5.12-5.12 10.24-3.413333 13.653334-5.12-1.706667-3.413333-3.413333-5.12-6.826667-6.826667-1.706667-1.706667-5.12-1.706667-8.533333-3.413333 1.706667-1.706667 5.12-3.413333 6.826666-6.826667-3.413333-3.413333-3.413333-3.413333-5.12 0-1.706667 1.706667-3.413333 5.12-6.826666 8.533333l-10.24 5.12-1.706667 1.706667h1.706667c1.706667 0 3.413333 0 6.826666-1.706667 5.12-1.706667 10.24-1.706667 13.653334-3.413333 1.706667 0 3.413333 1.706667 3.413333 1.706667 0 3.413333-3.413333 6.826667-6.826667 3.413333-1.706667 0-3.413333-1.706667-5.12-1.706667-5.12 1.706667-8.533333 1.706667-13.653333 3.413334 1.706667 3.413333 1.706667 3.413333 5.12 1.706666 1.706667-1.706667 5.12-3.413333 6.826667-3.413333h1.706666c0 3.413333-1.706667 3.413333-5.12 5.12 0 3.413333 0 3.413333-3.413333 3.413333-3.413333 1.706667-8.533333 1.706667-11.946667 3.413334 0 1.706667 0 1.706667 1.706667 1.706666 10.24 3.413333 13.653333 3.413333 17.066667 1.706667 3.413333 3.413333 3.413333 10.24-3.413334 10.24z" fill="#FFFFFF"></path><path d="M469.333333 607.573333h3.413334c-1.706667-1.706667-1.706667-3.413333-3.413334-5.12h-3.413333c-1.706667 3.413333 0 5.12 3.413333 5.12zM462.506667 614.4c-1.706667 0-3.413333 1.706667-5.12 3.413333 1.706667 1.706667 3.413333 1.706667 5.12 1.706667V614.4c-3.413333 1.706667 0 1.706667 0 0zM477.866667 599.04c-3.413333 1.706667-5.12 1.706667-6.826667 1.706667l3.413333 3.413333h1.706667c0-1.706667 1.706667-3.413333 1.706667-5.12-3.413333 1.706667 0 1.706667 0 0z" fill="#FFFFFF"></path><path d="M744.106667 431.786667c-22.186667-34.133333-51.2-58.026667-87.04-76.8 0-1.706667-1.706667-1.706667-3.413334-1.706667H366.933333c-1.706667 0-3.413333 1.706667-5.12 1.706667-30.72 15.36-56.32 37.546667-76.8 64.853333s-32.426667 56.32-35.84 88.746667c-3.413333 30.72 3.413333 58.026667 15.36 83.626666 0 1.706667 1.706667 1.706667 3.413334 1.706667h477.866666c3.413333 0 3.413333 0 5.12-1.706667 13.653333-27.306667 17.066667-56.32 15.36-85.333333 1.706667-27.306667-8.533333-52.906667-22.186666-75.093333z m-397.653334 109.226666c6.826667-22.186667 13.653333-42.666667 17.066667-64.853333 0-1.706667 1.706667-3.413333 3.413333-3.413333H387.413333c-3.413333 13.653333-6.826667 29.013333-10.24 42.666666 3.413333 0 8.533333 0 10.24 1.706667 3.413333-13.653333 8.533333-29.013333 11.946667-42.666667h1.706667c6.826667 0 15.36 0 23.893333 1.706667h1.706667c-3.413333 6.826667-5.12 13.653333-6.826667 20.48-5.12 15.36-8.533333 30.72-13.653333 46.08 0 0 0 1.706667-1.706667 1.706667h-1.706667c-6.826667 0-13.653333-1.706667-23.893333-1.706667 1.706667-5.12 3.413333-11.946667 6.826667-15.36h-11.946667 1.706667c-1.706667 3.413333-3.413333 8.533333-5.12 13.653333l-1.706667 1.706667h-1.706667c-5.12 0-11.946667 0-20.48-1.706667 1.706667 1.706667 1.706667 1.706667 0 0z m339.626667-117.76c-8.533333 18.773333-18.773333 35.84-37.546667 44.373334-5.12 3.413333-11.946667 5.12-17.066666 5.12h-3.413334c-3.413333 1.706667-5.12 5.12-5.12 6.826666-3.413333 11.946667-6.826667 22.186667-10.24 34.133334-5.12 15.36-10.24 32.426667-13.653333 46.08 0 1.706667-1.706667 1.706667-3.413333 3.413333 0 1.706667-1.706667 1.706667-3.413334 1.706667-8.533333-1.706667-17.066667-1.706667-25.6-1.706667H563.2c8.533333-29.013333 17.066667-58.026667 25.6-88.746667-11.946667 0-20.48-1.706667-30.72-1.706666 5.12-6.826667 11.946667-13.653333 17.066667-15.36 0 0 1.706667 0 3.413333-1.706667h10.24c17.066667-1.706667 49.493333 0 59.733333-3.413333 0-1.706667-1.706667-3.413333-3.413333-5.12s-3.413333-3.413333-5.12-3.413334c-22.186667-8.533333-44.373333-15.36-68.266667-22.186666-20.48-6.826667-42.666667-10.24-64.853333-13.653334-13.653333-3.413333-30.72-5.12-44.373333-6.826666h-5.12c-8.533333 1.706667-17.066667 5.12-10.24 11.946666 8.533333 11.946667 18.773333 18.773333 30.72 25.6 8.533333 5.12 17.066667 8.533333 25.6 13.653334 11.946667 6.826667 27.306667 20.48 34.133333 32.426666 3.413333 3.413333 6.826667 5.12 10.24 5.12h1.706667c8.533333 5.12 25.6 20.48 20.48 32.426667-3.413333 15.36-13.653333 29.013333-23.893334 39.253333-1.706667 0-3.413333 1.706667-3.413333 1.706667 0 1.706667-1.706667 1.706667-3.413333 1.706667H312.32c1.706667-3.413333 3.413333-3.413333 1.706667-3.413334 10.24-10.24 29.013333-11.946667 42.666666-8.533333 20.48 5.12 47.786667 1.706667 69.973334 0 17.066667-1.706667 35.84-3.413333 52.906666-6.826667h-51.2c1.706667-5.12 1.706667-10.24 3.413334-13.653333 5.12-17.066667 8.533333-35.84 13.653333-52.906667 0-3.413333 1.706667-3.413333 3.413333-3.413333h22.186667c-5.12 20.48-11.946667 39.253333-15.36 59.733333h11.946667c1.706667 0 1.706667-1.706667 1.706666-3.413333 3.413333-13.653333 8.533333-29.013333 11.946667-42.666667 1.706667-3.413333 1.706667-8.533333 3.413333-11.946666 0-1.706667 0-1.706667 1.706667-1.706667h20.48c-3.413333 10.24-5.12 17.066667-5.12 30.72-3.413333 11.946667-8.533333 25.6-10.24 37.546667 3.413333-1.706667 8.533333-1.706667 11.946667-3.413334 1.706667-1.706667 3.413333-1.706667 5.12-3.413333 6.826667-5.12 11.946667-11.946667 15.36-17.066667 5.12-8.533333 6.826667-15.36 5.12-23.893333 0-1.706667 0-3.413333-1.706667-5.12-6.826667-11.946667-15.36-17.066667-29.013333-22.186667-6.826667-3.413333-13.653333-5.12-22.186667-8.533333-23.893333-8.533333-44.373333-20.48-63.146667-37.546667-1.706667-1.706667-1.706667-3.413333 0-5.12 1.706667-3.413333 5.12-5.12 8.533334-6.826666 3.413333-3.413333 8.533333-3.413333 13.653333-3.413334 5.12 0 11.946667-3.413333 17.066667-3.413333 3.413333-3.413333 6.826667-5.12 10.24-6.826667 32.426667-18.773333 81.92-18.773333 117.76-15.36 30.72 1.706667 59.733333 6.826667 88.746666 13.653334 11.946667 5.12 18.773333 11.946667 22.186667 22.186666-5.12 0-5.12 3.413333-5.12 5.12z" fill="#FFFFFF"></path><path d="M510.293333 179.2c-257.706667 0-467.626667 150.186667-467.626666 336.213333 0 186.026667 209.92 336.213333 467.626666 336.213334S977.92 699.733333 977.92 513.706667c0-184.32-209.92-334.506667-467.626667-334.506667z m0 657.066667C262.826667 836.266667 63.146667 692.906667 63.146667 513.706667c0-177.493333 201.386667-322.56 448.853333-322.56s448.853333 145.066667 448.853333 322.56C959.146667 692.906667 757.76 836.266667 510.293333 836.266667z" fill="#132D81"></path><path d="M116.053333 535.893333c-20.48 0-35.84 6.826667-35.84 15.36s15.36 15.36 35.84 15.36 35.84-6.826667 35.84-15.36-15.36-15.36-35.84-15.36z m0 25.6c-17.066667 0-30.72-5.12-30.72-11.946666s13.653333-11.946667 30.72-11.946667 30.72 5.12 30.72 11.946667-13.653333 11.946667-30.72 11.946666zM486.4 785.066667c0-20.48-6.826667-35.84-15.36-35.84s-15.36 15.36-15.36 35.84 6.826667 35.84 15.36 35.84 15.36-17.066667 15.36-35.84z m-27.306667 0c0-17.066667 5.12-30.72 11.946667-30.72s11.946667 13.653333 11.946667 30.72-5.12 30.72-11.946667 30.72-11.946667-15.36-11.946667-30.72zM899.413333 462.506667c-20.48 0-35.84 6.826667-35.84 15.36s15.36 15.36 35.84 15.36 35.84-6.826667 35.84-15.36-15.36-15.36-35.84-15.36z m0 27.306666c-17.066667 0-30.72-5.12-30.72-11.946666s13.653333-11.946667 30.72-11.946667 30.72 5.12 30.72 11.946667-13.653333 11.946667-30.72 11.946666zM875.52 409.6c-18.773333 8.533333-30.72 22.186667-25.6 29.013333 3.413333 8.533333 20.48 6.826667 39.253333-1.706666 18.773333-8.533333 30.72-22.186667 25.6-29.013334-3.413333-6.826667-20.48-6.826667-39.253333 1.706667z m11.946667 23.893333c-15.36 6.826667-30.72 8.533333-32.426667 3.413334s8.533333-15.36 23.893333-23.893334c15.36-6.826667 30.72-8.533333 32.426667-3.413333s-8.533333 17.066667-23.893333 23.893333z"></path></svg>