<svg xmlns="http://www.w3.org/2000/svg" height="800" width="1200" id="svg13744" version="1.1" viewBox="-26.76711 -3.999975 231.98162 23.99985"><style id="style13686" type="text/css">path{fill:#ab1727}</style><g id="g13742" transform="matrix(1 0 0 -1 -505.775 201.416)"><path id="path13688" d="M514.8987 201.0038h-.2926c-.015-.3404-.196-.4877-.5356-.4877-.682 0-1.785.8273-2.9547.8273-3.328 0-5.3409-3.2783-5.3409-6.1663 0-2.9068 1.9163-5.779 5.129-5.779 1.949 0 2.6798.924 3.1985.924.3414 0 .5365-.423.6012-.665h.244v3.978h-.244l-.0975-.5525c-.2279-1.316-1.4445-3.3927-3.538-3.3927-1.8516 0-2.5645 1.7371-2.5645 5.6823 0 4.1374.9727 5.6804 2.6123 5.6804 1.8506 0 3.2304-2.223 3.4902-3.8804h.2927v3.8317z"/><path id="path13690" d="M523.751 191.035h-.288c0-.4175-.1763-.8977-.5609-.8977-.288 0-.3668.3039-.3668.8v3.6845c0 1.8253-1.7146 2.2746-3.3636 2.2746-1.6011 0-2.7708-.786-2.7708-1.6818 0-.5619.3199-1.0412 1.0403-1.0412.6087 0 .9773.3996.9773.9615 0 .7672-.7991.7203-.817.9924-.014.3526.9136.4793 1.4586.4793 1.1997 0 1.361-.59 1.361-1.5524v-1.3441l-1.5702-.1285c-1.4557-.1126-3.0418-.4972-3.0418-2.1621 0-1.3939 1.2484-1.9557 2.4819-1.9557.6237 0 1.7287.242 2.146 1.0093.288-.6716.8809-1.0093 1.6003-1.0093 1.0412 0 1.7137.6256 1.7137 1.5711m-3.3299.5272c-.0319-.849-.514-1.6162-1.2653-1.6162-1.089 0-1.136.9915-1.136 1.8244 0 .8508.0948 1.4107 1.136 1.5224l1.2653.1285z"/><path id="path13692" d="M523.8412 189.6573h4.7894v.2889h-1.4736v4.0868c0 1.2325.3846 2.0974 1.3938 2.5467h.0638c-.272-.288-.3845-.5432-.3845-.9437 0-.6256.4643-1.042 1.089-1.042.7691 0 1.2175.558 1.2175 1.1687 0 .77-.5131 1.2343-1.2654 1.2343-1.0252 0-1.8103-.7053-2.1142-1.5064h-.0319v1.634c-.3367-.4155-1.5214-.4155-2.178-.4155h-1.1059v-.287h1.106v-6.4759h-1.106v-.2889z"/><path id="path13694" d="M530.7868 189.6573h4.2585v.2889h-.9446v4.3907c0 .8151.801 1.9867 1.6969 1.9867.4643 0 .9464-.1933.9464-1.3132v-5.0642h-.9136v-.2889h4.2266v.2889h-1.105v4.4704c0 1.7306-.7363 2.4838-2.2577 2.4838-1.0712 0-2.1293-.56-2.5617-1.4885h-.0319v1.7127c-.3367-.4155-1.5195-.4155-2.177-.4155h-1.1369v-.287h1.105v-6.4759h-1.105v-.2889z"/><path id="path13696" d="M542.3903 193.532h4.4207c-.0159 1.7297-1.618 3.3946-3.2998 3.3646-1.8882 0-3.524-1.635-3.524-3.796 0-2.0824 1.5214-3.6366 3.5728-3.6366 1.9697 0 2.9471 1.2184 3.2989 2.8046h-.288c-.3517-1.4905-1.2813-2.4191-2.5307-2.4191-1.4895 0-1.65 1.2494-1.65 2.3375zm0 .2899v1.376c0 1.074.4652 1.4088 1.0093 1.4088.7672 0 1.0092-.527 1.0092-1.4088v-1.376z"/><path id="path13698" d="M554.7632 196.1746c0 .5619-.6078.8489-1.089.8489-.5272 0-.9277-.3527-1.2335-.7044-.4652.3358-1.104.5778-2.0007.5778-1.345 0-2.7877-.8808-2.7877-2.3394 0-.8798.4812-1.5683 1.33-1.9529v-.0309c-.6246-.0797-1.602-.513-1.602-1.8422 0-.7991.3686-1.4088 1.0412-1.602v-.031c-.6407-.1744-1.377-.815-1.377-1.5842 0-1.1847 1.3938-2.0983 3.1713-2.0983 2.225 0 3.6835 1.5055 3.6835 3.4584 0 1.5542-.7691 2.2577-2.3384 2.2258h-2.6592c-.4005 0-.9445.016-.9445.4474 0 .4015.6894.833 1.2972.833.1763 0 .3517-.0478.529-.0947.1914-.0647.3996-.0976.6566-.0976 1.377 0 2.8496.786 2.8496 2.3065 0 .5121-.2392 1.2316-.6875 1.6161.288.288.4324.6416 1.057.7204v-.0319c-.3367-.1754-.4323-.3836-.4323-.7053 0-.3677.256-.7364.7353-.7364.514 0 .801.3855.801.817m-6.0846-7.0921h2.5138c1.6011 0 2.1301-.1435 2.1301-1.1209 0-1.1687-1.4407-2.2568-3.0587-2.2568-1.4417 0-2.225.9764-2.2587 1.7437 0 .7054.2401 1.1697.6735 1.634m2.7867 5.475c-.0169-1.9688-.4333-2.0804-1.0093-2.0804-.6406 0-.9773.2082-.9773 2.1301 0 1.2954.1444 1.9998.9773 1.9998.7523 0 .9924-.2082 1.0093-2.0495"/><path id="path13700" d="M555.0133 189.6573h4.4235v.2889h-1.1059v7.1784c-.3367-.4155-1.5233-.4155-2.179-.4155h-1.1386v-.287h1.105v-6.4759h-1.105z"/><path id="path13702" d="M556.0813 199.1865c0-.635.5075-1.1443 1.1434-1.1443.636 0 1.1435.5093 1.1435 1.1443 0 .635-.5075 1.1425-1.1435 1.1425a1.1375 1.1375 0 01-1.1434-1.1425"/><path id="path13704" d="M561.8389 193.532h4.4189c-.0141 1.7297-1.6171 3.3946-3.299 3.3646-1.889 0-3.524-1.635-3.524-3.796 0-2.0824 1.5243-3.6366 3.5719-3.6366 1.9707 0 2.949 1.2184 3.2998 2.8046h-.288c-.3517-1.4905-1.2803-2.4191-2.5306-2.4191-1.4886 0-1.649 1.2494-1.649 2.3375zm0 .2899v1.376c0 1.074.4643 1.4088 1.0093 1.4088.7682 0 1.0083-.527 1.0083-1.4088v-1.376z"/><path id="path13706" d="M569.062 189.6573h3.1057v.288h-.2241c-.8649 0-1.2007.2241-1.2007 1.5214v9.0769h.0328l3.8251-10.8863h.4334l3.7294 10.694h.032v-10.406h-1.378v-.288h5.0755v.288h-1.2007v10.6949h1.2007v.288h-3.858l-2.706-7.7337h-.032l-2.6573 7.7337h-4.098v-.288h1.2156v-9.319c0-.6884-.1595-1.376-1.2316-1.376h-.0638v-.2879z"/><path id="path13708" d="M584.7354 193.532h4.4197c-.015 1.7297-1.617 3.3946-3.2988 3.3646-1.8892 0-3.524-1.635-3.524-3.796 0-2.0824 1.5223-3.6366 3.5737-3.6366 1.9679 0 2.9471 1.2184 3.298 2.8046h-.288c-.3508-1.4905-1.2804-2.4191-2.5307-2.4191-1.4905 0-1.65 1.2494-1.65 2.3375zm0 .2899v1.376c0 1.074.4643 1.4088 1.0092 1.4088.7692 0 1.0093-.527 1.0093-1.4088v-1.376z"/><path id="path13710" d="M589.1976 189.6573h4.4236v.288h-1.1059v11.4706c-.2889-.4802-1.1706-.4802-2.3084-.4802h-1.0093v-.289h1.1069v-10.7014h-1.1069z"/><path id="path13712" d="M593.9017 189.6573h4.4236v.288h-1.105v11.4706c-.2898-.4802-1.1706-.4802-2.3083-.4802h-1.0103v-.289h1.105v-10.7014h-1.105z"/><path id="path13714" d="M605.7658 193.1811c0 2.193-1.6968 3.7154-3.811 3.7154-2.1134 0-3.812-1.5224-3.812-3.7154 0-2.1949 1.6986-3.7172 3.812-3.7172 2.1142 0 3.811 1.5223 3.811 3.7172m-2.4988-1.7296c0-1.2025-.4953-1.6978-1.3123-1.6978-.816 0-1.3131.4953-1.3131 1.6978v3.4593c0 1.1997.497 1.6959 1.3131 1.6959.817 0 1.3123-.4962 1.3123-1.696z"/><path id="path13716" d="M605.7754 189.6573h4.2594v.2889h-.9436v4.3907c0 .8151.801 1.9867 1.6978 1.9867.4634 0 .9445-.1933.9445-1.3132v-5.0642h-.9145v-.2889h4.2294v.2889h-1.1068v4.4704c0 1.7306-.7354 2.4838-2.2568 2.4838-1.0722 0-2.1293-.56-2.5626-1.4885h-.031v1.7127c-.3357-.4155-1.5213-.4155-2.178-.4155h-1.1377v-.287h1.1059v-6.4759h-1.106v-.2889z"/><path id="path13718" d="M617.2786 200.6402h1.2494v-7.2535c0-2.481 1.711-3.9864 4.3223-3.9864 2.9453 0 4.2256 1.5542 4.2256 3.9086v5.9862c0 .9286.256 1.345.833 1.345h.4164v.288h-3.1694v-.288h.4643c.817 0 1.073-.4164 1.073-1.345v-6.0847c0-2.1752-1.3141-3.2323-2.8674-3.2323-2.3375 0-2.8008 1.5683-2.8008 3.6169v7.0452h1.2963v.288h-5.0427z"/><path id="path13720" d="M627.7023 189.6573h4.2585v.2889h-.9436v4.3907c0 .8151.7982 1.9867 1.6949 1.9867.4662 0 .9455-.1933.9455-1.3132v-5.0642h-.9117v-.2889h4.2265v.2889h-1.103v4.4704c0 1.7306-.7382 2.4838-2.2587 2.4838-1.0721 0-2.1302-.56-2.5617-1.4885h-.0319v1.7127c-.3376-.4155-1.5214-.4155-2.1798-.4155h-1.135v-.287h1.103v-6.4759h-1.103v-.2889z"/><path id="path13722" d="M637.2063 189.6573h4.4235v.2889h-1.105v7.1784c-.3376-.4155-1.5223-.4155-2.1808-.4155h-1.1377v-.287h1.1077v-6.4759h-1.1077z"/><path id="path13724" d="M638.2744 199.1865c0-.635.5093-1.1443 1.1452-1.1443.6341 0 1.1416.5093 1.1416 1.1443 0 .635-.5075 1.1425-1.1416 1.1425-.636 0-1.1452-.5075-1.1452-1.1425"/><path id="path13726" d="M644.8741 189.464h.4324l2.3694 5.6063c.4005.8967.7363 1.3292 1.105 1.3451h.1453v.289h-2.4988v-.289h.3058c.4634 0 .7354-.1754.7354-.5919 0-.258-.0797-.6087-.272-1.057l-1.089-2.5627-1.8741 4.2116h.9614v.289h-4.0192v-.289h.6884z"/><path id="path13728" d="M650.6825 193.532h4.4208c-.015 1.7297-1.6171 3.3946-3.298 3.3646-1.891 0-3.525-1.635-3.525-3.796 0-2.0824 1.5224-3.6366 3.5738-3.6366 1.9688 0 2.9452 1.2184 3.298 2.8046h-.2862c-.3545-1.4905-1.2822-2.4191-2.5316-2.4191-1.4904 0-1.541 1.2494-1.541 2.3375zm0 .2899v1.376c0 1.074.4653 1.4088 1.0102 1.4088.7683 0 1.0074-.527 1.0074-1.4088v-1.376z"/><path id="path13730" d="M655.1407 189.6573h4.7884v.2889h-1.4726v4.0868c0 1.2325.3845 2.0974 1.3938 2.5467h.0638c-.272-.288-.3845-.5432-.3845-.9437 0-.6256.4633-1.042 1.089-1.042.7691 0 1.2175.558 1.2175 1.1687 0 .77-.5122 1.2343-1.2663 1.2343-1.0243 0-1.8094-.7053-2.1133-1.5064h-.032v1.634c-.3366-.4155-1.5213-.4155-2.178-.4155h-1.1058v-.287h1.1059v-6.4759h-1.106v-.2889z"/><path id="path13732" d="M662.1838 189.464h.289c.0806.258.3367.3855.6575.3855.4155 0 .9117-.3855 1.8093-.3855 1.5224 0 2.5626 1.3141 2.5626 2.6273 0 1.9538-1.3441 2.0983-3.0597 2.3384-.8967.1285-1.4567.273-1.4567.9783 0 .7523.6566 1.1988 1.5214 1.1988 1.2007 0 1.8422-.9437 2.2437-1.9848h.2551l-.0966 2.2746h-.24c0-.1923-.1905-.3527-.4963-.3527-.513 0-.9295.3527-1.6658.3527-1.6012 0-2.3853-1.3629-2.3853-2.3872 0-2.0664 1.5683-2.2408 2.7848-2.3853 1.1547-.1454 1.635-.256 1.635-.9933 0-.8498-.7035-1.377-1.5702-1.377-1.2166 0-2.21 1.2325-2.4988 2.4013h-.289v-2.6911z"/><path id="path13734" d="M667.7852 189.6573h4.4217v.2889h-1.104v7.1784c-.3368-.4155-1.5224-.4155-2.179-.4155h-1.1387v-.287h1.1068v-6.4759h-1.1068z"/><path id="path13736" d="M668.855 199.1865c0-.635.5057-1.1443 1.1416-1.1443.637 0 1.1444.5093 1.1444 1.1443 0 .635-.5075 1.1425-1.1444 1.1425-.636 0-1.1415-.5075-1.1415-1.1425"/><path id="path13738" d="M672.8415 196.4147v-5.1243c0-1.5214 1.3132-1.8262 1.7616-1.8262.9774 0 1.634.4005 2.131 1.2334l-.2072.1126c-.1932-.288-.4512-.6735-.8508-.6735-.4155 0-.6237.3049-.6237.832v5.446h1.4745v.287h-1.4745v3.4433h-.289c0-1.6977-1.1537-3.4433-2.7717-3.4433v-.287z"/><path id="path13740" d="M676.4726 196.4156h.6716l3.0738-7.124-.0947-.6397c-.0647-.4653-.3856-2.2915-.9136-2.45v.0469c.0638.225.0807.3995.0807.544 0 .545-.3837.9614-1.058.9614-.7036 0-1.0553-.4812-1.0553-1.089 0-.6566.6087-1.1218 1.3113-1.1218 1.2663 0 1.5861 1.3948 1.7296 2.0664l.4334 1.9529.833 2.0814 1.5842 3.5718c.3536.8142.6725 1.1997 1.0252 1.1997h.1285v.2889h-2.497v-.289h.3359c.5112 0 .7363-.2888.7363-.5608 0-.318-.2092-.848-.4643-1.4558l-.9286-2.194-1.8741 4.2107h1.0571v.2889h-4.115v-.289z"/></g></svg>