<?xml version="1.0" encoding="utf-8"?>
<!-- Generator: Adobe Illustrator 19.2.1, SVG Export Plug-In . SVG Version: 6.00 Build 0)  -->
<svg version="1.1" id="layer" xmlns="http://www.w3.org/2000/svg" xmlns:xlink="http://www.w3.org/1999/xlink" x="0px" y="0px"
	 viewBox="0 0 652 652" style="enable-background:new 0 0 652 652;" xml:space="preserve">
<style type="text/css">
	.st0{fill:#9D1D20;}
</style>
<polygon class="st0" points="264,316.2 257.9,313.3 254,316.2 239.2,316.2 239.2,292.5 259.8,292.5 259.8,290.1 259.7,290.1 
	259.8,290.1 253.7,287.2 249.7,290.1 239.2,290.1 239.2,269.9 232.6,269.9 232.6,316.2 210.8,316.2 210.8,318.5 232.6,318.5 
	239.2,318.5 264,318.5 264,316.2 "/>
<g>
	<path class="st0" d="M366.2,321.3h6.6v-27c3.1,3.7,3,5,4.5,6.3c1.2,1.1,2.9,1.1,3.7,0c3.2-3.8-5.6-7.9-8.2-9v-3.2h8.1V286h-8.1
		v-8.7c3-0.8,5.8-1.7,7.7-2.9l-5.7-4.5c0,0-7.3,5.2-18.1,8v2c0,0,4.3-0.3,9.5-1.2v7.3h-9.5v2.3h8c-0.5,1.9-4,14.2-9,21.5l1.5,1.2
		c0,0,5.3-5.2,9-12.1V321.3z"/>
	<polygon class="st0" points="409.6,304.9 409.6,302.5 401.4,302.5 401.4,270 394.8,270 394.8,302.5 376.6,302.5 376.6,304.9 
		394.8,304.9 394.8,321.3 401.4,321.3 401.4,304.9 	"/>
	<path class="st0" d="M388.9,284.5c1.4,1,3,0.7,3.7-0.3c3.3-4.7-9.8-8.3-9.8-8.3l-0.9,1.2C387.3,281.6,387,283.1,388.9,284.5"/>
	<path class="st0" d="M383.3,288.3l-1,1.1c4.8,5.2,4.4,6.7,6.1,8.2c1.3,1.1,2.9,1,3.7,0C396,293.3,383.3,288.3,383.3,288.3"/>
	<path class="st0" d="M528,288.1h21.4v-2.3h0l0,0l-6.1-2.9l-3.9,2.9h-13.3c1.2-7.5,0.9-13.8,0.8-15.8H519c0.5,5.9,0.4,11.2-0.2,15.8
		h-21.1v2.3h20.8c-3.2,19.4-14.8,27.5-20.8,30.5v2.7c18.4-4.6,25.4-19.8,27.9-32.6c1.4,22.7,18.8,32.6,18.8,32.6
		c1.7-5.4,7.1-4.5,7.1-4.5v-1.9C534.7,309,528.6,290.2,528,288.1"/>
	<path class="st0" d="M620,281.4l-6.1-2.9l-3.9,2.9h-6.3c1.7-1.6,4.9-4.9,8.3-9.7l-7.9-2.5c0,0-2.1,8.5-4.5,12.2h-16.2
		c0.3-0.1,0.6-0.3,0.9-0.6c4.2-4.7-10.5-10.7-10.5-10.7l-1.1,1.2c5.4,5.6,5.5,7.8,7.4,9.5c0.4,0.3,0.7,0.5,1.1,0.7h-9.2
		c-0.3-1.1-0.8-2.4-0.8-2.4h-1.7l0,0.4c-1,5.4-3.8,6.6-3.8,10.1c0,1.7,1.2,3.6,3.3,3.6c3,0,4-2.6,4-6.3c0-0.7-0.1-1.9-0.3-3h39.8
		l-1.8,7.9h2.6l6.8-7.9h0v0l0-0.1V281.4z"/>
	<path class="st0" d="M591.2,279c1.3,1.2,3,1.1,3.9,0c3.9-4.6-9.8-10.4-9.8-10.4l-1,1.1C589.3,275.1,589.4,277.4,591.2,279"/>
	<path class="st0" d="M597.8,313.1v-10.2h20v-2.3h0l-6.1-2.9l-3.9,2.9h-10.1v-3.5l8.1-6.1v-2.3h-28.3v2.3h20.9l-7.3,6.1h-0.1v3.6
		h-24.3v2.3h24.3v10.2c0,1.1-0.8,1.1-2.3,1.1c-1.4,0-7.9-0.4-9.2-0.5v1.9c9.3,1,8,5.6,8,5.6C597.7,320,597.8,313.1,597.8,313.1"/>
	<path class="st0" d="M448.3,293.4v-2.5c-2,0.8-3.9,1.5-5.8,2.2V283h5.8v-2.3h-5.8v-10.8h-6.6v10.8h-7.7v2.3h7.7v12.2
		c-5.4,1.5-9.2,2.3-9.2,2.3l1.9,6c2.7-1.1,5.1-2.2,7.3-3.2v12.7l0-0.6c0,1.9-0.1,2.6-3.9,2.6c-1.7,0-3.2-0.2-3.2-0.2v1.5
		c4.9,0.9,5.3,4.9,5.3,4.9h1.8v0h6.6v-24.4C445.2,295.4,447.1,294.2,448.3,293.4"/>
	<path class="st0" d="M481.4,314.6c-6.1-1.1-10.9-3.2-14.7-5.8c6.9-7.2,10.5-14.9,11-15.8h0v-2.3h-12.3V283h15.5v-2.3h0l-6.1-2.9
		l-3.9,2.9h-5.5v-10.8h-6.6v10.8h-9v2.3h9v7.6h-8.9v2.3h1c1.6,6.4,4.3,11.5,7.5,15.4c-7.4,7.4-14.9,10.7-14.9,10.7v2.1
		c7.7-1,14-4.4,19-8.5c7.1,6.5,14.5,8.6,14.5,8.6c1.1-4,3.9-4.9,4.6-5.1L481.4,314.6L481.4,314.6z M453.8,292.9h15
		c-1.9,4.5-4.5,8.4-7.2,11.7C456.4,299.5,454.3,294.2,453.8,292.9"/>
	<path class="st0" d="M330.7,284.3h-1.4H324h-15.7h-2.7c1-1.3,2-2.8,3.1-4.4h26.6v-2.3h0l0,0l-6.1-2.9l-3.9,2.9l0,0h-15.2
		c1-1.8,2-3.8,2.8-5.9l-7.2-1.8c0,0-1.8,11.5-8.1,20.6l1.4,1.2c0,0,1-0.9,2.6-2.6v7.7h-5.3v2.3h5.3v10.1v2.3v1.2h6.6v-1.2h15.7
		c-0.1,2.3-0.5,3.6-3.2,3.6H311v1.5c0,0,8.2,0.7,8.2,4.7c0,0,11.4-0.1,11.5-9.8h4.7v-2.3h-4.7v-10.1h4.7v-2.3h-4.7V284.3z
		 M324,309.1h-3.3c0,0,0,0,0.1,0c3.8-4.4-8.9-9.3-8.9-9.3l-1,1.1c4.8,5.2,4.4,6.7,6.1,8.2c0,0,0.1,0.1,0.1,0.1h-8.8v-10.1H324V309.1
		z M324,296.7h-3.4c0,0,0.1-0.1,0.1-0.1c3.8-4.4-8.9-9.3-8.9-9.3l-1,1.1c4.8,5.2,4.4,6.7,6.1,8.2c0.1,0.1,0.1,0.1,0.2,0.2h-8.9
		v-10.1H324V296.7z"/>
	<path class="st0" d="M292.8,279.2c1.2,1.1,2.9,1,3.7,0c3.8-4.4-8.9-9.3-8.9-9.3l-1,1.1C291.5,276.2,291.1,277.7,292.8,279.2"/>
	<path class="st0" d="M288.4,290.7c1.2,1.1,2.9,1,3.7,0c3.8-4.4-8.9-9.3-8.9-9.3l-1,1.1C287.1,287.6,286.7,289.1,288.4,290.7"/>
	<path class="st0" d="M299.1,277.6c-1.9,4.8-7.6,19.3-9.9,21.8c-2.1,2.3-6.2,1.1-6.2,1.1v2.1c0,0,5.4,1.2,5.4,12.4
		c0,3.6,0,6.2,0,6.2l4.4,0c0,0,0.1-13.3,0.4-17.7c0.2-4.2,7.1-23,8.2-25.9H299.1z"/>
	<path class="st0" d="M219.3,350.9c-1.6-0.5-2.7-1.3-2.7-3c0-2.3,2.4-3.9,4.2-3.9c3.7,0,5.6,1.9,6.2,5h2.8c0-4.8-4.1-7.4-8.9-7.4
		c-4.2,0-8.4,2.1-8.4,6.8c0,2.4,1.1,4.8,5.1,5.8c3.2,0.9,8.4,1.7,8.8,5c0.2,2.1-1.3,4.1-4.9,4.1c-2.9,0-6.9-1.2-7.3-5.8h-2.6
		c0.1,5.7,4.3,8.2,9.6,8.2c4.5,0,9.2-2.1,9.2-7.2C230.5,352.9,223.5,352.2,219.3,350.9"/>
	<path class="st0" d="M568.7,354.4c-1.2-0.3-2.3-0.9-2.1-2.2c0.2-1.1,1.6-1.7,3.1-1.7c2.1,0,4,0.7,4.5,3h2.1c0-3.5-3-5.4-6.4-5.4
		c-3,0-6.1,1.6-6.1,4.9c0,1.7,0.6,3.5,3.9,4.4c4.3,1.2,6.2,2.1,6.2,3.8c0,1.1-1.2,2-3.5,2c-1.8,0-4.8-0.2-5.1-3.6H563
		c0.1,4.2,3.2,6,7,6c3.3,0,6.7-1.5,6.7-5.3C576.7,357.9,574.9,356.1,568.7,354.4"/>
	<path class="st0" d="M244.2,348.1c-2.2,0-4.1,1.1-5,2.6h-0.1v-8.6h-3.7v23h3.7v-9.8c0-2.5,1.6-4.9,4-4.9c2.2,0,3.2,1.7,3.3,4.3
		v10.5h3.7v-11.5C250.1,350.1,247.8,348.1,244.2,348.1"/>
	<path class="st0" d="M432.6,348.1c-2.2,0-4.1,1.1-5,2.6h-0.1v-8.6h-3.7v23h3.7v-9.8c0-2.5,1.6-4.9,4-4.9c2.2,0,3.2,1.7,3.3,4.3
		v10.5h3.7v-11.5C438.5,350.1,436.3,348.1,432.6,348.1"/>
	<path class="st0" d="M325.9,348.1c-2.2,0-4.1,1.1-5,2.6h-0.1v-8.6h-3.7v23h3.7v-9.8c0-2.5,1.6-4.9,4-4.9c2.2,0,3.2,1.7,3.3,4.3
		v10.5h3.7v-11.5C331.8,350.1,329.5,348.1,325.9,348.1"/>
	<path class="st0" d="M284.5,348.1c-2.2,0-4.1,1.1-5.2,3l-0.1-0.1v-2.5h-3.5v16.7h3.7v-9.8c0-2.5,1.6-4.9,4-4.9
		c2.2,0,3.2,1.7,3.3,4.3v10.5h3.7v-11.5C290.4,350.1,288.1,348.1,284.5,348.1"/>
	<path class="st0" d="M489.8,348.1c-2.2,0-4.1,1.1-5.2,3l-0.1-0.1v-2.5h-3.5v16.7h3.7v-9.8c0-2.5,1.6-4.9,4-4.9
		c2.2,0,3.2,1.7,3.3,4.3v10.5h3.7v-11.5C495.8,350.1,493.5,348.1,489.8,348.1"/>
	<path class="st0" d="M308,350.9L308,350.9c-1-1.9-2.9-2.7-5-2.7c-4.7,0-7.6,3.9-7.6,8.4c0,4.8,2.2,8.8,7.5,8.8c2.1,0,4-1.1,5-2.9
		h0.1v2.6c0,2.7-1.3,4.6-4.3,4.6c-2.2,0-4.3-0.7-4.9-2.8H296c0.3,3.9,4.1,5.2,7.5,5.2c5.3,0,8.2-2.4,8.2-7.5v-15.8H308V350.9z
		 M303.5,362.9c-3.1,0-4.4-3.3-4.4-6.1c0-2.8,1.1-6.3,4.4-6.3c3.2,0,4.5,3.2,4.5,6C308,359.4,306.7,362.9,303.5,362.9"/>
	<rect x="357.7" y="348.6" class="st0" width="3.7" height="16.7"/>
	<rect x="357.7" y="342.2" class="st0" width="3.7" height="3.5"/>
	<polygon class="st0" points="384.3,342.2 365.6,342.2 365.6,344.6 372.9,344.6 372.9,365.3 377,365.3 377,344.6 384.3,344.6 	"/>
	<path class="st0" d="M392.1,348.1c-5,0-8.1,4.1-8.1,8.8c0,5.2,2.9,8.8,8.2,8.8c3.6,0,6.8-2,7.5-5.7H397c-0.7,1.8-2.6,3.4-4.9,3.3
		c-3.6-0.1-4.7-3.4-4.6-5.9H400C400.7,352.4,397.3,348.1,392.1,348.1 M387.7,355c0.1-2.5,1.8-4.6,4.4-4.5c2.7,0.1,4,2.2,4.2,4.5
		H387.7z"/>
	<path class="st0" d="M537.4,348.1c-5,0-8.1,4.1-8.1,8.8c0,5.2,2.9,8.8,8.2,8.8c3.6,0,6.8-2,7.5-5.7h-2.7c-0.7,1.8-2.6,3.4-4.9,3.3
		c-3.6-0.1-4.7-3.4-4.6-5.9h12.5C545.9,352.4,542.6,348.1,537.4,348.1 M533,355c0.1-2.5,1.8-4.6,4.4-4.5c2.7,0.1,4,2.2,4.2,4.5H533z
		"/>
	<path class="st0" d="M412.1,350.6c1.8-0.1,4,0.5,4.8,3.6l2.7,0c-0.4-4.1-3.6-6-7.5-6c-5.5,0-8.2,3.9-8.2,9c0,4.9,2.9,8.6,8.1,8.6
		c4.3,0,7-2.3,7.6-6.7h-2.8c-0.3,2.4-2,4.5-4.9,4.3c-3.2-0.2-4.4-3.5-4.4-6.2C407.6,352.1,410.2,350.7,412.1,350.6"/>
	<path class="st0" d="M471.1,355.7c0,3.1-0.2,7.8-5.4,7.8s-5.4-4.7-5.4-7.8v-13.4h-4V357c0,5.9,3.8,8.8,9.5,8.8s9.5-2.9,9.5-8.8
		v-14.8h-4V355.7z"/>
	<rect x="501.7" y="342.2" class="st0" width="3.7" height="3.5"/>
	<rect x="501.7" y="348.6" class="st0" width="3.7" height="16.7"/>
	<polygon class="st0" points="518.8,361.4 518.8,361.4 513.7,348.6 509.7,348.6 515.8,365.3 520.1,365.3 525.9,348.6 523.1,348.6 	
		"/>
	<path class="st0" d="M554,351.8L554,351.8l-0.1-3.2h-3.5v16.7h3.7v-7.9c0-3.7,2-6.5,4.5-6.5c0.5,0,1.1,0.1,1.6,0.2v-2.5
		c-0.3,0-0.5-0.1-1.4-0.1C556.6,348.5,554.4,350.1,554,351.8"/>
	<rect x="581.4" y="348.6" class="st0" width="3.7" height="16.7"/>
	<rect x="581.4" y="342.2" class="st0" width="3.7" height="3.5"/>
	<path class="st0" d="M595.8,343.6h-3.7v4.9h-2.8v2.4h2.8v10.4c0.1,2.8,0.7,4.3,4.6,4.3c0.8,0,1.6-0.1,2.4-0.2v-2.5
		c-0.5,0.1-1,0.1-1.5,0.1c-1.6,0-1.8-0.8-1.8-2.3v-9.8h3.3v-2.4h-3.3V343.6z"/>
	<path class="st0" d="M269.8,361.7L269.8,361.7V353c0-3.5-3.4-4.8-6.7-4.8c-3.7,0-7.3,1.2-7.6,5.5h2.4c0.7-3.1,3.3-3.3,5-3.1
		c1.5,0.1,3.5,0.8,3.5,2.7c0,2.2-2.3,1.8-5,2.4c-3.1,0.4-6.4,1-6.4,5.2c0,3.3,2.7,4.9,5.7,4.9c2,0,4.3-0.6,5.8-2v2h3.4v-2.8V361.7z
		 M266.2,359.7c0,2.3-2.5,3.7-4.1,3.7c-1.3,0-3.4-1-3.4-2.7c0-1.9,1.4-2.5,3-2.8c1.6-0.3,3.4-0.3,4.5-1V359.7z"/>
	<path class="st0" d="M351.9,361.7L351.9,361.7V353c0-3.5-3.4-4.8-6.7-4.8c-3.7,0-7.3,1.2-7.6,5.5h2.4c0.7-3.1,3.3-3.3,5-3.1
		c1.4,0.1,3.5,0.8,3.5,2.7c0,2.2-2.3,1.8-5,2.4c-3.1,0.4-6.4,1-6.4,5.2c0,3.3,2.7,4.9,5.7,4.9c2,0,4.3-0.6,5.8-2v2h3.4v-2.8h0V361.7
		z M348.2,359.7c0,2.3-2.5,3.7-4.1,3.7c-1.3,0-3.4-1-3.4-2.7c0-1.9,1.4-2.5,3-2.8c1.6-0.3,3.4-0.3,4.5-1V359.7z"/>
</g>
<g>
	<path class="st0" d="M610.9,361.1L610.9,361.1l-5.1-12.5h-4l7,16.6l-2.5,6.8h3.3c0.2-0.5,8.7-23.4,8.7-23.4h-3.1L610.9,361.1z"/>
	<path class="st0" d="M100.4,240.1c-44.4,0-80.4,36.1-80.4,80.4s36.1,80.4,80.4,80.4c44.4,0,80.4-36.1,80.4-80.4
		S144.8,240.1,100.4,240.1 M100.4,398.4c-42.9,0-77.9-34.9-77.9-77.9c0-42.9,34.9-77.9,77.9-77.9c42.9,0,77.9,34.9,77.9,77.9
		C178.3,363.4,143.4,398.4,100.4,398.4"/>
</g>
<polygon class="st0" points="162,320.8 161.8,322.9 165.3,325.4 161.5,327.3 161.3,329.5 166.9,326.5 170.8,326.8 171,324.9 
	167.1,324.6 "/>
<polygon class="st0" points="162.7,330.4 161.2,330 159.6,337.2 161.1,337.6 161.7,334.9 169.3,336.5 169.7,334.7 162.1,333 "/>
<rect x="162.3" y="336.3" transform="matrix(0.3114 -0.9503 0.9503 0.3114 -211.5822 389.8662)" class="st0" width="1.9" height="9.3"/>
<g>
	<path class="st0" d="M164,344.9c-0.5-0.2-1-0.3-1.5-0.3c-0.5,0.1-0.9,0.2-1.3,0.5c-0.4,0.3-0.9,0.8-1.4,1.6c-0.6,0.7-1,1.2-1.3,1.3
		c-0.2,0.1-0.4,0.1-0.6,0c-0.2-0.1-0.4-0.3-0.4-0.5c-0.1-0.4,0-0.8,0.2-1.3c0.2-0.5,0.5-0.8,0.8-1c0.3-0.2,0.7-0.2,1.2,0l0.7-1.7
		c-0.8-0.3-1.5-0.3-2.3,0c-0.7,0.3-1.3,1-1.8,2.1c-0.3,0.7-0.4,1.3-0.5,1.8c0,0.5,0.1,1,0.4,1.4c0.3,0.4,0.6,0.7,1,0.9
		c0.7,0.3,1.4,0.3,2.1,0c0.5-0.2,1.1-0.7,1.7-1.6c0.5-0.6,0.8-1,1-1.2c0.2-0.2,0.5-0.4,0.7-0.5c0.2-0.1,0.4,0,0.6,0.1
		c0.3,0.1,0.5,0.4,0.6,0.8c0.1,0.4,0,0.9-0.2,1.4c-0.2,0.5-0.5,0.9-1,1.1c-0.4,0.2-0.9,0.2-1.5,0.1l-0.6,1.7c1,0.3,1.9,0.3,2.6-0.1
		c0.7-0.3,1.4-1.1,1.9-2.1c0.3-0.7,0.5-1.4,0.5-2c0-0.6-0.1-1.1-0.4-1.6C164.8,345.4,164.5,345.1,164,344.9"/>
	<path class="st0" d="M158.3,354.9c-0.4,0.1-0.8,0.2-1.2,0.4c0.3-0.7,0.4-1.4,0.3-2c-0.2-0.6-0.5-1.1-1.1-1.5
		c-0.5-0.3-0.9-0.5-1.5-0.5c-0.5,0-0.9,0.1-1.3,0.4c-0.4,0.3-0.8,0.8-1.4,1.7l-2.1,3.3l7.8,5l1-1.6l-3.3-2.1l0.2-0.3
		c0.2-0.4,0.4-0.6,0.6-0.7c0.2-0.1,0.4-0.2,0.6-0.3c0.2,0,0.8-0.1,1.7-0.1l2.4,0l1.2-1.9l-2.1,0
		C159.3,354.8,158.7,354.9,158.3,354.9 M155.9,354.8c-0.1,0.2-0.3,0.7-0.8,1.5l-0.7,1.2l-2-1.3l0.8-1.2c0.4-0.6,0.7-1,0.8-1.1
		c0.2-0.2,0.4-0.4,0.7-0.4c0.3,0,0.5,0,0.8,0.2c0.2,0.2,0.4,0.3,0.5,0.5C155.9,354.3,155.9,354.5,155.9,354.8"/>
	<polygon class="st0" points="151.1,367.4 149.2,365.7 152.3,362.2 151.1,361.2 148,364.7 146.5,363.3 149.8,359.6 148.7,358.5 
		144.1,363.7 151,369.8 155.7,364.6 154.6,363.5 	"/>
	<polygon class="st0" points="141.7,365.9 144.4,372.6 138.2,368.8 136.6,370.2 145.2,375.1 146.7,373.8 143.2,364.6 	"/>
	
		<rect x="136.5" y="370.5" transform="matrix(0.8285 -0.56 0.56 0.8285 -186.4927 141.2671)" class="st0" width="1.9" height="9.3"/>
	<polygon class="st0" points="130.6,373.9 133.5,379.4 127.2,375.7 125.6,376.5 129.9,384.7 131.5,383.9 128.7,378.6 134.8,382.2 
		136.5,381.3 132.2,373.1 	"/>
	<path class="st0" d="M123.5,377.4l-1.8,0.6l1.6,4.9c0.2,0.7,0.4,1.2,0.4,1.5c0,0.3,0,0.6-0.2,0.9c-0.2,0.3-0.5,0.5-1,0.7
		c-0.5,0.2-0.9,0.2-1.3,0.1c-0.4-0.1-0.6-0.3-0.8-0.7c-0.1-0.2-0.3-0.7-0.6-1.4l-1.6-4.8l-1.8,0.6l1.6,4.7c0.3,1,0.6,1.7,0.9,2.2
		c0.2,0.3,0.5,0.6,0.8,0.8c0.4,0.2,0.8,0.4,1.3,0.4c0.5,0,1.2-0.1,2-0.4c0.7-0.2,1.2-0.5,1.6-0.8c0.4-0.3,0.6-0.7,0.8-1.1
		c0.2-0.4,0.2-0.8,0.2-1.3c-0.1-0.5-0.3-1.2-0.6-2.3L123.5,377.4z"/>
	<polygon class="st0" points="108.6,381.3 108.9,384.9 105.3,385.3 104.9,381.7 103,381.8 104,391.1 105.8,390.9 105.4,386.9 
		109.1,386.5 109.5,390.5 111.4,390.3 110.4,381.1 	"/>
	<path class="st0" d="M95.5,383.8c0.5-0.5,1-0.7,1.7-0.7c0.5,0,0.9,0.2,1.2,0.5c0.3,0.3,0.5,0.7,0.6,1.2l1.9-0.3
		c-0.2-0.7-0.5-1.3-0.9-1.8c-0.7-0.7-1.6-1.1-2.7-1.2c-1.3-0.1-2.4,0.3-3.2,1.1c-0.9,0.8-1.3,2-1.4,3.5c-0.1,1.5,0.3,2.6,1,3.5
		c0.8,0.9,1.7,1.4,3,1.4c1,0.1,1.8-0.1,2.5-0.6c0.7-0.5,1.2-1.2,1.5-2.2l-1.8-0.7c-0.2,0.7-0.5,1.2-0.9,1.5
		c-0.4,0.3-0.8,0.4-1.3,0.4c-0.7,0-1.2-0.3-1.6-0.8c-0.4-0.5-0.6-1.4-0.5-2.5C94.8,385.1,95,384.3,95.5,383.8"/>
	<polygon class="st0" points="82.6,388.9 89.6,390.3 89.9,388.8 84.8,387.8 85.3,385.3 89.9,386.2 90.2,384.7 85.6,383.7 86,381.7 
		91,382.7 91.3,381.2 84.5,379.8 	"/>
	<polygon class="st0" points="76.1,376.9 75.6,378.4 78.2,379.3 75.5,386.6 77.3,387.2 79.9,380 82.5,380.9 83.1,379.4 	"/>
	<polygon class="st0" points="70.8,384.6 69.1,383.8 73.1,375.4 74.8,376.2 	"/>
	<path class="st0" d="M59,377.9l1.7,1l1.8-1.4l3.1,2l-0.4,2.2l1.7,1.1l1.8-9.9l-1.7-1.1L59,377.9z M66,377.9l-2.2-1.3l2.9-2.3
		L66,377.9z"/>
	<polygon class="st0" points="61.6,368 59.2,370.7 56.4,368.3 58.8,365.6 57.4,364.3 51.3,371.4 52.7,372.6 55.3,369.5 58.1,371.9 
		55.5,375 56.9,376.2 63,369.2 	"/>
	<path class="st0" d="M50,362.5l-1.2,1l1.4,1.7l-0.9,0.8c-0.3-0.1-0.7-0.2-1.1-0.4c-0.4-0.2-0.7-0.5-0.9-0.8c-0.5-0.6-0.7-1.3-0.6-2
		c0.1-0.7,0.6-1.4,1.4-2.2c0.8-0.7,1.5-1,2.2-0.9c0.7,0,1.3,0.4,1.9,1c0.3,0.4,0.5,0.9,0.6,1.3c0,0.4-0.1,0.9-0.4,1.3l1.5,1.2
		c0.5-0.7,0.8-1.4,0.7-2.3c0-0.8-0.4-1.7-1.2-2.5c-0.6-0.7-1.2-1.2-1.8-1.4c-0.8-0.3-1.6-0.4-2.5-0.3c-0.8,0.2-1.6,0.6-2.4,1.2
		c-0.7,0.6-1.2,1.2-1.6,2c-0.4,0.8-0.4,1.6-0.3,2.4c0.1,0.8,0.5,1.6,1.2,2.4c0.5,0.6,1.1,1.1,1.8,1.5c0.7,0.4,1.3,0.6,1.9,0.7
		l2.9-2.4L50,362.5z"/>
	<polygon class="st0" points="48.4,353 43,356.2 46.4,349.7 45.5,348.2 37.5,352.9 38.4,354.4 43.6,351.3 40.3,357.6 41.2,359.2 
		49.2,354.5 	"/>
	<path class="st0" d="M42.8,341.7l-10,0l0.7,1.8l2.2,0l1.4,3.5l-1.7,1.5l0.7,1.9l7.3-6.9L42.8,341.7z M38.4,345.8l-0.9-2.4l3.7-0.1
		L38.4,345.8z"/>
	<polygon class="st0" points="40.8,335.2 37.2,336 36.4,332.4 40,331.6 39.6,329.8 30.5,331.8 30.9,333.6 34.9,332.7 35.7,336.3 
		31.7,337.2 32.1,339 41.2,337.1 	"/>
	<path class="st0" d="M31.2,328c0.5,0.3,1,0.4,1.5,0.3c0.6,0,1.1-0.2,1.5-0.5c0.4-0.3,0.7-0.6,0.9-1.1c0.2-0.5,0.4-1.1,0.5-2.1
		c0.2-0.9,0.3-1.5,0.5-1.7c0.1-0.2,0.3-0.3,0.5-0.3c0.2,0,0.4,0.1,0.6,0.3c0.2,0.3,0.4,0.7,0.4,1.3c0,0.5,0,0.9-0.2,1.2
		c-0.2,0.3-0.5,0.5-1,0.6l0.2,1.9c0.9-0.1,1.5-0.4,2-1.1c0.5-0.6,0.7-1.5,0.6-2.7c0-0.7-0.2-1.3-0.4-1.8c-0.2-0.5-0.6-0.9-1-1.1
		c-0.4-0.2-0.9-0.3-1.4-0.3c-0.7,0-1.3,0.4-1.8,1c-0.3,0.4-0.6,1.2-0.8,2.2c-0.2,0.8-0.3,1.3-0.3,1.5c-0.1,0.3-0.2,0.6-0.4,0.7
		c-0.2,0.1-0.3,0.2-0.5,0.2c-0.3,0-0.7-0.1-0.9-0.4c-0.3-0.3-0.4-0.7-0.5-1.3c0-0.6,0.1-1,0.3-1.4c0.3-0.3,0.7-0.6,1.3-0.8l-0.3-1.8
		c-1,0.2-1.8,0.6-2.3,1.3c-0.5,0.7-0.7,1.6-0.6,2.8c0,0.8,0.2,1.5,0.5,2C30.4,327.3,30.8,327.7,31.2,328"/>
	<rect x="77.6" y="329.7" class="st0" width="1.3" height="8.5"/>
	<rect x="80.3" y="327.3" class="st0" width="1.3" height="9.5"/>
	<rect x="85.9" y="324.1" class="st0" width="1.3" height="10.3"/>
	<rect x="83.1" y="325.6" class="st0" width="1.3" height="9.9"/>
	<rect x="88.7" y="322.9" class="st0" width="1.3" height="10.6"/>
	<rect x="91.5" y="322" class="st0" width="1.3" height="10.8"/>
	<rect x="74.8" y="332.4" class="st0" width="1.3" height="7.7"/>
	<rect x="72" y="336.1" class="st0" width="1.3" height="5.9"/>
	<rect x="69.2" y="340" class="st0" width="1.3" height="4.3"/>
	<rect x="66.4" y="343.1" class="st0" width="1.3" height="3"/>
	<rect x="63.6" y="345.4" class="st0" width="1.3" height="2.2"/>
	<rect x="60.9" y="347.4" class="st0" width="1.3" height="1.6"/>
	<rect x="122.1" y="329.7" class="st0" width="1.3" height="8.5"/>
	<rect x="119.3" y="327.3" class="st0" width="1.3" height="9.5"/>
	<rect x="113.7" y="324.1" class="st0" width="1.3" height="10.3"/>
	<rect x="116.5" y="325.6" class="st0" width="1.3" height="9.9"/>
	<rect x="110.9" y="322.9" class="st0" width="1.3" height="10.6"/>
	<rect x="108.1" y="322" class="st0" width="1.3" height="10.8"/>
	<rect x="124.8" y="332.4" class="st0" width="1.3" height="7.7"/>
	<rect x="127.6" y="336.1" class="st0" width="1.3" height="5.9"/>
	<rect x="130.4" y="340" class="st0" width="1.3" height="4.3"/>
	<rect x="133.2" y="343.1" class="st0" width="1.3" height="3"/>
	<rect x="136" y="345.4" class="st0" width="1.3" height="2.2"/>
	<rect x="138.7" y="347.4" class="st0" width="1.3" height="1.6"/>
	<path class="st0" d="M91.8,364.1c0.5-0.4,0.8-0.7,0.9-0.9c0.3-0.3,0.4-0.6,0.6-1c0.1-0.3,0.2-0.6,0.2-0.9c0-0.6-0.2-1.1-0.6-1.5
		c-0.4-0.4-1-0.6-1.7-0.6c-0.7,0-1.2,0.2-1.7,0.5c-0.4,0.3-0.7,0.9-0.8,1.7l1.4,0.1c0-0.4,0.1-0.7,0.3-0.9c0.2-0.2,0.4-0.3,0.7-0.3
		s0.5,0.1,0.7,0.3c0.2,0.2,0.3,0.4,0.3,0.7c0,0.3-0.1,0.6-0.3,0.9c-0.1,0.2-0.5,0.6-1.2,1.2c-0.8,0.7-1.3,1.3-1.6,1.8
		c-0.3,0.4-0.4,0.9-0.5,1.4h5v-1.3h-2.8c0.1-0.1,0.2-0.3,0.3-0.4C91.1,364.8,91.4,364.5,91.8,364.1"/>
	<path class="st0" d="M97.9,359.2c-0.7,0-1.3,0.2-1.7,0.8c-0.5,0.6-0.7,1.6-0.7,3c0,1.4,0.2,2.4,0.7,3c0.4,0.6,1,0.8,1.7,0.8
		c0.7,0,1.3-0.3,1.7-0.8c0.5-0.6,0.7-1.6,0.7-3c0-1.4-0.2-2.4-0.7-3C99.2,359.5,98.6,359.2,97.9,359.2 M98.7,364.8
		c-0.1,0.3-0.2,0.5-0.3,0.6c-0.1,0.1-0.3,0.2-0.5,0.2c-0.2,0-0.3,0-0.5-0.2c-0.1-0.1-0.2-0.3-0.3-0.7c-0.1-0.3-0.1-0.9-0.1-1.8
		c0-0.9,0-1.5,0.1-1.8c0.1-0.3,0.2-0.5,0.3-0.6c0.1-0.1,0.3-0.2,0.5-0.2c0.2,0,0.3,0,0.5,0.2c0.1,0.1,0.2,0.3,0.3,0.6
		c0.1,0.3,0.1,0.9,0.1,1.8C98.8,363.9,98.8,364.5,98.7,364.8"/>
	<path class="st0" d="M103.3,360.4c-0.4,0.3-0.8,0.6-1.2,0.7v1.3c0.7-0.2,1.3-0.6,1.8-1.1v5.3h1.4v-7.4h-1.2
		C104,359.7,103.7,360.1,103.3,360.4"/>
	<path class="st0" d="M111,362.7c0.7-0.4,1.1-0.9,1.1-1.6c0-0.5-0.2-0.9-0.5-1.2c-0.4-0.4-1-0.7-1.7-0.7c-0.4,0-0.8,0.1-1.1,0.2
		c-0.3,0.2-0.6,0.4-0.8,0.6c-0.2,0.3-0.3,0.6-0.4,1.1l1.3,0.2c0-0.3,0.1-0.6,0.3-0.7c0.2-0.2,0.4-0.2,0.6-0.2c0.2,0,0.4,0.1,0.6,0.2
		c0.1,0.2,0.2,0.3,0.2,0.6c0,0.3-0.1,0.5-0.3,0.7c-0.2,0.2-0.5,0.3-0.9,0.3l-0.2,1.2c0.2-0.1,0.5-0.1,0.6-0.1c0.3,0,0.5,0.1,0.7,0.3
		c0.2,0.2,0.3,0.5,0.3,0.9c0,0.4-0.1,0.7-0.3,0.9c-0.2,0.2-0.4,0.3-0.7,0.3c-0.3,0-0.5-0.1-0.7-0.3c-0.2-0.2-0.3-0.5-0.3-0.8
		l-1.4,0.2c0.1,0.6,0.3,1.1,0.8,1.5c0.4,0.4,1,0.6,1.7,0.6c0.7,0,1.3-0.2,1.8-0.7c0.5-0.5,0.7-1,0.7-1.7c0-0.4-0.1-0.8-0.4-1.1
		C111.7,363,111.4,362.8,111,362.7"/>
	<path class="st0" d="M112.3,354.6h-1.7v-0.7h-1.7v-0.7h-3.7l1.4-7.7c0-0.1,0-0.1,0-0.2c0-0.1,0-0.1-0.1-0.2l-1.7-7.7v0
		c0,0,0,0,0-0.1l0.9-5.1h1v-10.8h-1.3v4.2l-0.8-3.9c0,0,0,0,0-0.1c0,0,0,0,0-0.1l1.2-7.8c0,0,0-0.1,0-0.1c0,0,0-0.1,0-0.1
		c0,0,0,0,0,0c0,0,0,0,0-0.1l-1.5-7.8v0l1-7.7c0-0.1,0-0.1,0-0.2c0-0.1,0-0.1,0-0.2l-1.3-7.7c0,0,0,0,0,0c0,0,0,0,0,0l1-7.9l0-0.4
		h-3.7l-0.3-7.7h-0.7l-0.3,7.7H96l1,8.3l-1.4,7.9c0,0,0,0,0,0c0,0,0,0.1,0,0.1l1,7.8l-1.5,7.9c0,0,0,0,0,0v0c0,0,0,0,0,0
		c0,0,0,0.1,0,0.1l1.2,7.9l-0.8,4v-4.1h-1.3v10.8h0.9l0.9,5.2c0,0,0,0,0,0l-1.8,7.8v0.1c0,0,0,0.1,0,0.1l1.4,7.8H92v0.7h-1.7v0.7
		h-1.7v0.8h23.8V354.6z M100.4,330.4l3.4,6.7h-6.7L100.4,330.4z M100.4,314.5l3.1,6.6h-6.2L100.4,314.5z M103,289.4h-5l2.5-6.5
		L103,289.4z M100.4,298.7l2.8,6.5h-5.6L100.4,298.7z M100.4,346.2l3.8,7h-7.6L100.4,346.2z M101.1,345l1.1-2.2l2.1-4.2l1.4,6.4
		H101.1z M101.1,329.1l2.9-6.3l1.3,6.3H101.1z M101,313.2l0.6-1.5l2.1-4.8l1.2,6.2H101z M101,297.4l2.4-6.1l1.1,6.1H101z
		 M97.5,291.2l1.6,4.1l0.8,2h-3.4L97.5,291.2z M97.2,307l0.8,1.9l1.9,4.3H96L97.2,307z M96.9,322.8l2.9,6.3h-4.3L96.9,322.8z
		 M96.6,338.6l3.2,6.4h-4.6L96.6,338.6z"/>
	<path class="st0" d="M119.8,372.3c0.7,0,1.4-0.1,2-0.4c1.8-0.7,2.9-2.5,3.9-4.4c0.7,0.1,1.4,0.1,2.1,0.1c1.6,0,2.8-0.3,3.7-0.9
		c1.6-1.1,2.3-3,3-5c2.1-0.2,4.2-0.6,5.5-1.9c1.3-1.3,1.7-3.4,1.9-5.5c2-0.6,4-1.4,5-2.9s1-3.7,0.8-5.7c1.8-1,3.6-2.1,4.4-3.9
		c0.7-1.7,0.2-3.8-0.4-5.8c1.6-1.3,3.1-2.8,3.5-4.6c0.4-1.8-0.5-3.7-1.5-5.6c1.3-1.6,2.5-3.4,2.5-5.3c0-1.9-1.2-3.6-2.5-5.2
		c1-1.8,1.8-3.7,1.4-5.6c-0.4-1.9-1.9-3.3-3.5-4.7c0.6-2,1.1-4.1,0.3-5.8c-0.7-1.8-2.5-2.9-4.4-3.9c0.2-2.1,0.3-4.2-0.8-5.7
		c-1.1-1.6-3-2.3-5-2.9c-0.2-2.1-0.6-4.2-1.9-5.5c-1.3-1.3-3.4-1.7-5.5-1.9c-0.6-2-1.4-4-2.9-5c-0.9-0.6-2.1-0.9-3.7-0.9
		c-0.7,0-1.4,0-2,0.1c-1-1.8-2.1-3.6-3.9-4.4c-0.6-0.2-1.2-0.4-2-0.4c-1.2,0-2.5,0.3-3.8,0.7c-1.4-1.6-2.8-3.1-4.7-3.5
		c-0.3-0.1-0.6-0.1-0.9-0.1c-1.6,0-3.1,0.7-4.7,1.6c-1.6-1.3-3.3-2.5-5.3-2.5c-1.9,0-3.6,1.2-5.2,2.5c-1.5-0.8-3.1-1.5-4.7-1.5
		c-0.3,0-0.6,0-0.9,0.1c-1.9,0.4-3.3,1.9-4.7,3.5c-1.3-0.4-2.6-0.7-3.8-0.7c-0.7,0-1.4,0.1-2,0.4c-1.8,0.7-2.9,2.5-3.9,4.4
		c-0.7-0.1-1.4-0.1-2.1-0.1c-1.6,0-2.8,0.3-3.7,0.9c-1.6,1.1-2.3,3-2.9,5c-2.1,0.2-4.2,0.6-5.5,1.9c-1.3,1.3-1.7,3.4-1.9,5.5
		c-2,0.6-4,1.4-5,2.9c-1,1.6-1,3.7-0.8,5.7c-1.8,1-3.6,2.1-4.4,3.9c-0.7,1.7-0.2,3.8,0.4,5.8c-1.6,1.4-3.1,2.8-3.5,4.6
		c-0.4,1.8,0.5,3.7,1.5,5.6c-1.3,1.6-2.5,3.3-2.5,5.3s1.2,3.6,2.5,5.3c-1,1.8-1.8,3.7-1.4,5.6c0.4,1.9,1.9,3.3,3.5,4.7
		c-0.6,2-1.1,4.1-0.4,5.8c0.7,1.8,2.5,2.9,4.4,3.9c-0.2,2.1-0.3,4.2,0.8,5.7c1.1,1.6,3,2.3,5,3c0.2,2.1,0.6,4.1,1.9,5.5
		c1.3,1.3,3.4,1.7,5.5,1.9c0.6,2,1.4,4,2.9,5c0.9,0.6,2.1,0.9,3.7,0.9c0.7,0,1.4,0,2-0.1c1,1.8,2.1,3.6,3.9,4.4
		c0.6,0.3,1.2,0.4,2,0.4c1.2,0,2.5-0.3,3.8-0.7c1.4,1.6,2.8,3.1,4.7,3.5c0.3,0.1,0.6,0.1,0.9,0.1c1.6,0,3.2-0.7,4.7-1.6
		c1.6,1.3,3.3,2.5,5.3,2.5c1.9,0,3.6-1.2,5.2-2.5c1.5,0.8,3.1,1.5,4.7,1.5c0.3,0,0.6,0,0.9-0.1c1.9-0.4,3.3-1.9,4.7-3.5
		C117.3,372,118.6,372.3,119.8,372.3 M111.3,369.3c-0.4,0-0.8,0-1.1,0.1c-1.7,0.3-3.2,1.5-4.7,2.7c-1.7-0.9-3.4-1.8-5.1-1.8
		c-1.7,0-3.4,0.9-5.1,1.7c-1.5-1.2-3-2.4-4.6-2.7c-0.3-0.1-0.7-0.1-1.1-0.1c-1.3,0-2.8,0.4-4.2,0.8c-1.2-1.4-2.5-2.9-4-3.5
		c-0.8-0.3-1.7-0.5-2.9-0.5c-0.8,0-1.6,0.1-2.5,0.1c-0.9-1.7-1.8-3.3-3.2-4.3c-1.4-0.9-3.3-1.2-5.2-1.4c-0.6-1.8-1.2-3.6-2.4-4.8
		c-1.2-1.2-3-1.8-4.8-2.4c-0.2-1.9-0.4-3.8-1.4-5.2c-0.9-1.4-2.6-2.3-4.2-3.2c0.2-1.9,0.3-3.8-0.3-5.4c-0.6-1.5-2.1-2.8-3.6-4
		c0.5-1.8,1-3.7,0.7-5.3c-0.3-1.7-1.5-3.2-2.7-4.6c0.9-1.7,1.8-3.4,1.8-5.1c0-1.7-0.9-3.4-1.7-5.1c1.2-1.5,2.4-3,2.7-4.6
		c0.3-1.7-0.2-3.5-0.7-5.3c1.4-1.2,2.9-2.5,3.6-4c0.6-1.6,0.5-3.5,0.3-5.4c1.7-0.9,3.3-1.8,4.3-3.2c0.9-1.4,1.2-3.3,1.4-5.2
		c1.8-0.6,3.6-1.2,4.8-2.4c1.2-1.2,1.8-3,2.4-4.8c1.9-0.2,3.8-0.4,5.2-1.4c1.4-0.9,2.3-2.6,3.2-4.3c0.8,0.1,1.6,0.1,2.4,0.1
		c1.2,0,2.1-0.2,3-0.5c1.5-0.6,2.8-2.1,4-3.6c1.4,0.4,2.9,0.8,4.2,0.8c0.4,0,0.8,0,1.1-0.1c1.7-0.3,3.2-1.5,4.6-2.7
		c1.7,0.9,3.4,1.8,5.1,1.8c1.7,0,3.4-0.9,5.1-1.7c1.5,1.2,3,2.4,4.6,2.7c0.3,0.1,0.7,0.1,1.1,0.1c1.3,0,2.8-0.4,4.2-0.8
		c1.2,1.4,2.5,2.9,4,3.6c0.8,0.3,1.7,0.5,2.9,0.5c0.8,0,1.6-0.1,2.5-0.1c0.9,1.7,1.8,3.3,3.2,4.3c1.4,0.9,3.3,1.2,5.2,1.4
		c0.6,1.8,1.2,3.6,2.4,4.8c1.2,1.2,3,1.8,4.8,2.3c0.2,1.9,0.4,3.8,1.4,5.2c0.9,1.4,2.6,2.3,4.2,3.2c-0.2,1.9-0.3,3.8,0.3,5.4
		c0.6,1.5,2.1,2.8,3.6,4c-0.5,1.8-1,3.7-0.7,5.3c0.3,1.7,1.5,3.2,2.7,4.7c-0.9,1.7-1.8,3.4-1.8,5.1c0,1.7,0.9,3.4,1.7,5.1
		c-1.2,1.5-2.4,3-2.7,4.6c-0.3,1.7,0.2,3.5,0.7,5.3c-1.5,1.2-2.9,2.5-3.6,4c-0.7,1.6-0.5,3.5-0.3,5.4c-1.7,0.9-3.3,1.8-4.3,3.2
		c-0.9,1.4-1.2,3.3-1.4,5.2c-1.8,0.6-3.6,1.2-4.8,2.4c-1.2,1.2-1.8,3-2.4,4.8c-1.9,0.2-3.8,0.4-5.2,1.4c-1.4,0.9-2.3,2.6-3.2,4.3
		c-0.8-0.1-1.6-0.1-2.4-0.1c-1.2,0-2.1,0.2-3,0.5c-1.5,0.6-2.8,2.1-4,3.6C114.1,369.7,112.7,369.3,111.3,369.3 M121.3,370.7
		c-0.4,0.2-0.9,0.3-1.5,0.3c-0.9,0-1.9-0.2-2.9-0.5c1-1.2,2-2.3,3.1-2.8c0.6-0.3,1.4-0.4,2.5-0.4c0.6,0,1.2,0,1.7,0.1
		C123.4,368.9,122.5,370.2,121.3,370.7 M130.7,365.7c-0.7,0.5-1.6,0.7-2.9,0.7c-0.4,0-0.9,0-1.4-0.1c0.7-1.3,1.5-2.6,2.6-3.3
		c1-0.7,2.5-0.9,4-1.1C132.4,363.5,131.8,365,130.7,365.7 M138.9,359c-0.9,0.9-2.5,1.2-4.1,1.5c0.5-1.5,1-2.9,1.9-3.7
		c0.9-0.9,2.3-1.4,3.8-1.9C140.2,356.5,139.8,358,138.9,359 M145.7,350.7c-0.7,1.1-2.2,1.7-3.8,2.2c0.2-1.5,0.4-3,1.1-4
		c0.7-1,1.9-1.8,3.3-2.5C146.4,348.1,146.4,349.6,145.7,350.7 M150.7,341.3c-0.5,1.2-1.8,2.1-3.3,3c-0.1-1.5-0.2-3.1,0.3-4.2
		c0.5-1.1,1.6-2.2,2.8-3.2C150.9,338.6,151.2,340.1,150.7,341.3 M153.8,331.1c-0.3,1.3-1.3,2.4-2.6,3.5c-0.4-1.5-0.8-3-0.5-4.2
		c0.2-1.2,1.1-2.4,2.1-3.6C153.5,328.4,154,329.8,153.8,331.1 M152.9,324.5c-0.7-1.4-1.3-2.8-1.3-4c0-1.2,0.6-2.6,1.4-4
		c1,1.3,1.9,2.7,1.9,4C154.8,321.8,154,323.2,152.9,324.5 M153.8,309.9c0.3,1.3-0.3,2.8-1,4.2c-1-1.2-1.9-2.4-2.1-3.6
		c-0.2-1.2,0.1-2.7,0.5-4.2C152.4,307.4,153.5,308.6,153.8,309.9 M150.7,299.7c0.5,1.2,0.2,2.7-0.2,4.4c-1.2-1-2.3-2-2.8-3.1
		c-0.5-1.2-0.4-2.7-0.3-4.2C148.9,297.6,150.2,298.4,150.7,299.7 M145.7,290.3c0.7,1.1,0.7,2.6,0.6,4.3c-1.3-0.7-2.6-1.5-3.3-2.5
		c-0.7-1-0.9-2.5-1.1-4C143.5,288.6,144.9,289.2,145.7,290.3 M140.4,286.2c-1.5-0.5-2.9-1-3.7-1.9c-0.9-0.9-1.4-2.3-1.9-3.8
		c1.7,0.2,3.2,0.5,4.2,1.5C139.8,283,140.2,284.5,140.4,286.2 M130.6,275.3c1.1,0.7,1.7,2.2,2.2,3.8c-1.5-0.2-3-0.4-4-1.1
		c-1-0.7-1.8-2-2.5-3.3c0.5,0,0.9-0.1,1.3-0.1C129,274.6,129.9,274.8,130.6,275.3 M121.3,270.2c1.2,0.5,2.1,1.8,3,3.3
		c-0.6,0.1-1.2,0.1-1.8,0.1c-1,0-1.8-0.1-2.4-0.4c-1.1-0.5-2.2-1.6-3.1-2.8c1-0.3,2-0.5,2.9-0.5C120.4,270,120.8,270.1,121.3,270.2
		 M111.1,267.2c1.3,0.3,2.4,1.4,3.5,2.6c-1.5,0.4-3,0.7-4.2,0.5c-1.2-0.2-2.4-1.1-3.6-2.1C108.4,267.5,109.8,266.9,111.1,267.2
		 M104.5,268c-1.4,0.7-2.8,1.3-4,1.3c-1.2,0-2.6-0.6-4-1.4c1.3-1,2.6-1.9,4-1.9C101.8,266.1,103.1,267,104.5,268 M89.8,267.2
		c1.3-0.2,2.8,0.3,4.2,1.1c-1.2,1-2.4,1.9-3.6,2.1c-1.1,0.2-2.7-0.1-4.2-0.5C87.4,268.5,88.5,267.4,89.8,267.2 M79.6,270.2
		c0.4-0.2,0.9-0.3,1.5-0.3c0.9,0,1.9,0.2,2.9,0.5c-1,1.2-2,2.3-3.1,2.8c-0.6,0.3-1.4,0.4-2.5,0.4c-0.6,0-1.1,0-1.7-0.1
		C77.5,272,78.4,270.8,79.6,270.2 M70.2,275.3c0.7-0.5,1.6-0.7,2.9-0.7c0.5,0,0.9,0,1.4,0.1c-0.7,1.3-1.5,2.6-2.5,3.3
		c-1,0.7-2.5,0.9-4,1.1C68.5,277.4,69.1,276,70.2,275.3 M62,282c0.9-0.9,2.4-1.2,4.1-1.5c-0.5,1.5-1,2.9-1.9,3.8
		c-0.9,0.9-2.3,1.4-3.7,1.9C60.7,284.5,61.1,283,62,282 M55.2,290.3c0.7-1.1,2.2-1.7,3.8-2.2c-0.2,1.5-0.4,3-1.1,4
		c-0.7,1-2,1.8-3.3,2.5C54.5,292.9,54.5,291.4,55.2,290.3 M50.2,299.7c0.5-1.2,1.8-2.1,3.3-3c0.1,1.5,0.2,3.1-0.3,4.2
		c-0.5,1.1-1.6,2.1-2.8,3.1C50,302.4,49.7,300.9,50.2,299.7 M47.1,309.9c0.3-1.3,1.4-2.4,2.6-3.5c0.4,1.5,0.8,3,0.5,4.2
		c-0.2,1.2-1.1,2.4-2.1,3.6C47.4,312.6,46.9,311.2,47.1,309.9 M48,316.5c0.7,1.4,1.3,2.8,1.3,4c0,1.2-0.6,2.6-1.4,4
		c-1-1.3-1.9-2.6-1.9-4C46.1,319.2,46.9,317.8,48,316.5 M47.1,331.1c-0.3-1.3,0.3-2.8,1-4.3c1,1.2,1.9,2.4,2.1,3.6
		c0.2,1.2-0.1,2.7-0.5,4.2C48.5,333.6,47.4,332.4,47.1,331.1 M50.2,341.3c-0.5-1.2-0.2-2.7,0.2-4.4c1.2,1,2.3,2,2.8,3.1
		c0.5,1.1,0.4,2.7,0.3,4.2C52,343.4,50.7,342.5,50.2,341.3 M55.2,350.7c-0.7-1.1-0.7-2.6-0.6-4.3c1.3,0.7,2.6,1.5,3.3,2.5
		c0.7,1,0.9,2.5,1.1,4C57.4,352.4,56,351.8,55.2,350.7 M60.5,354.8c1.5,0.5,2.9,1,3.7,1.9c0.9,0.9,1.4,2.3,1.9,3.8
		c-1.7-0.2-3.2-0.5-4.2-1.5C61.1,358,60.7,356.5,60.5,354.8 M70.2,365.7c-1.1-0.7-1.7-2.2-2.3-3.8c1.5,0.2,3,0.4,4,1.1
		c1,0.7,1.8,2,2.6,3.3c-0.5,0-0.9,0.1-1.4,0.1C71.9,366.4,70.9,366.2,70.2,365.7 M79.6,370.7c-1.2-0.5-2.1-1.8-3-3.3
		c0.6,0,1.2-0.1,1.8-0.1c1,0,1.8,0.1,2.4,0.4c1.1,0.5,2.1,1.6,3.1,2.8c-1,0.3-2,0.5-2.9,0.5C80.5,371,80,370.9,79.6,370.7
		 M89.8,373.8c-1.3-0.3-2.4-1.3-3.5-2.6c1.5-0.4,3-0.7,4.2-0.5c1.2,0.2,2.4,1.1,3.6,2.1C92.5,373.5,91.1,374.1,89.8,373.8 M96.4,373
		c1.4-0.7,2.8-1.3,4-1.3c1.2,0,2.6,0.6,4,1.4c-1.3,1-2.6,1.9-4,1.9C99.1,374.9,97.8,374,96.4,373 M111.1,373.8
		c-1.2,0.2-2.8-0.3-4.2-1c1.2-1,2.4-1.9,3.6-2.1c1.1-0.2,2.7,0.1,4.2,0.5C113.5,372.5,112.4,373.6,111.1,373.8"/>
	<polygon class="st0" points="72.7,297.2 68.2,297.2 68.8,296.8 67.7,295.1 66.9,295.6 67.8,297.2 63.8,297.2 63.8,298.1 
		72.7,298.1 	"/>
	<polygon class="st0" points="73.3,304 69.8,304 71.5,299.4 70.5,299.4 68.7,304 67.3,304 67.2,303.9 67.7,303.7 65.9,299.4 
		64.8,299.4 66.7,304 63.1,304 63.1,304.9 73.3,304.9 	"/>
	<polygon class="st0" points="62.8,316.5 63.6,317 65.1,314.5 64.2,314.1 	"/>
	<polygon class="st0" points="68.8,315.7 69.6,315.2 68.3,313 67.5,313.5 	"/>
	<polygon class="st0" points="70.8,314.3 72.8,316.8 73.6,316.2 71.5,313.7 	"/>
	<polygon class="st0" points="72.3,311.8 68.7,311.8 68.7,310.3 73.1,310.3 73.1,309.3 68.7,309.3 68.7,307.6 67.7,307.6 
		67.7,309.3 63.1,309.3 63.1,310.3 67.7,310.3 67.7,311.8 64.2,311.8 64.2,312.8 72.3,312.8 	"/>
	<path class="st0" d="M69.8,316.9h-2.8c-0.2,0-0.3-0.1-0.3-0.3v-2.4h-1v2.9c0,0.2,0,0.7,0.7,0.7h4v0h0c0.6-0.1,1.1-1.1,1.2-1.3
		l-1.1-0.5C70.5,316.4,70.2,316.8,69.8,316.9"/>
	<path class="st0" d="M86.4,316.7L86.4,316.7l0-5.7h3.1v-0.9h-3.1v-2.5h-1v2.5h-5.4v0.9h5l0,0.1c-1.2,1.8-2.9,3.3-5,4.4v1.2
		c0.6-0.3,3.2-1.6,5.3-4.3l0.1-0.1v3.7c-0.1,0.4-0.5,0.6-0.9,0.7l-0.1,0l0.6,1.2C85.3,317.8,86.4,317.3,86.4,316.7"/>
	<path class="st0" d="M120.4,318.4h0.9v-10.2H112v10.2h0.9v-0.6h7.5V318.4z M112.9,309.1h7.5v7.7h-7.5V309.1z"/>
	<polygon class="st0" points="117.8,314.1 118.6,314.9 117.1,314.9 117.1,313.2 119.3,313.2 119.3,312.3 117.1,312.3 117.1,311 
		119.5,311 119.5,310.1 113.8,310.1 113.8,311 116.2,311 116.2,312.3 114.1,312.3 114.1,313.2 116.2,313.2 116.2,314.9 113.6,314.9 
		113.6,315.8 119.7,315.8 119.7,314.9 118.5,313.5 	"/>
	<polygon class="st0" points="137.5,297 136,295.4 135.4,296 136.8,297.7 	"/>
	
		<rect x="132" y="296.1" transform="matrix(0.5977 -0.8017 0.8017 0.5977 -184.2419 226.0597)" class="st0" width="2.2" height="0.9"/>
	<polygon class="st0" points="131,297.2 129.9,295.3 129.1,295.8 130.3,297.6 	"/>
	<path class="st0" d="M127.5,301.5l0.6,0.8c0.2-0.1,0.6-0.5,1.2-1l0.1-0.1v4.4h0.9v-4.1l1,1.2l0.7-0.5l-1-1.3l0.9-0.9l-0.6-0.7
		l-0.9,0.8l0,0l0-0.1l0,0c0.3-0.5,0.6-1,0.9-1.5l0,0c0.2-0.4,0.3-0.7,0.3-0.9h-3.7v0.9h2.3l0,0.1
		C129.1,300.3,127.8,301.3,127.5,301.5"/>
	<path class="st0" d="M131.6,301.2l0.7,0.8c0.1,0,0.2-0.2,0.5-0.4l0.1-0.1v4h0.9V305h2.1v0.5h0.9v-4.3l0.1,0.1
		c0.2,0.2,0.5,0.3,0.7,0.5l0.6-0.8c-0.6-0.4-2-1.4-2.9-3.3c0,0,0.1-0.2,0.1-0.3l-1.1,0C133.3,299.9,131.9,301,131.6,301.2
		 M135.8,304.1h-2.1v-2.2h2.1V304.1z M133.4,300.9c0.5-0.5,0.9-1.2,1.2-1.9l0-0.1l0,0.1c0.4,0.7,1,1.4,1.6,1.9l0.1,0.1L133.4,300.9
		L133.4,300.9z"/>
	<path class="st0" d="M113.5,300.7l-1.8,0.7v1l1.8-0.7v2v0.1h0c0,0.3-0.3,0.6-0.9,0.8l0.5,1c0.2-0.1,1.3-0.6,1.3-1.2v0l0-3.1
		l1.2-0.4v-1l-1.2,0.5v-1.7h1.2v-0.9h-1.2v-2.5h-0.9v2.5h-1.9v0.9h1.9L113.5,300.7z"/>
	<path class="st0" d="M117,300.3L117,300.3L117,300.3l0.1,0c0,0.1,0.4,1.4,1.4,2.7l0,0l0,0c-0.4,0.5-0.8,0.8-1.1,1.1l-0.1,0v1.3
		c0.7-0.4,1.3-1,1.9-1.6l0,0l0,0c0.7,0.7,1.5,1.3,2.3,1.7l0-1.2c-0.6-0.3-1.2-0.8-1.7-1.3l0,0l0,0c0.6-0.8,1-1.8,1.2-2.7l0-0.1
		c0-0.2,0.1-0.6,0.2-0.9h-0.6H117v-2.6h2.9v0.4v0.1h0c0,0.3-0.3,0.6-0.9,0.9l0.5,1c0.2-0.1,1.2-0.6,1.3-1.2l0,0v-2.1h-4.7v9.7h0.9
		V300.3z M120.1,300.2L120.1,300.2c-0.2,0.7-0.5,1.3-0.9,1.9l0,0l0,0c-0.5-0.8-0.8-1.5-0.9-1.8l0-0.1H120.1z"/>
	<path class="st0" d="M136,316.9c-0.2,0-0.3-0.1-0.6-0.3l-0.1,0c-0.7-0.5-1.2-1.4-1.5-2.6l0-0.1h2.8V313h-3l0,0
		c-0.1-0.6-0.1-1-0.2-1.3v0h3.2v-3.2l-7.9,0v8.5h0l0,0c0,0.5,1.1,1.1,1.3,1.2l0.5-1c-0.3-0.2-0.9-0.5-0.9-0.9v-2.3h3.1l0,0
		c0.4,1.6,1.1,2.8,2.1,3.5l0,0c0.5,0.3,0.9,0.5,1.3,0.5c1,0,1.2-1.4,1.2-1.7h-1.1C136.3,316.6,136.3,316.9,136,316.9 M129.7,313
		v-1.4h2.8l0,0c0,0.3,0,0.7,0.1,1.3l0,0H129.7z M129.7,309.3h6.1v1.4h-6.1V309.3z"/>
	<path class="st0" d="M81.4,300.4L81.4,300.4l1.8,0v2.6h0l0,0.1c-0.1,0.3-0.3,0.4-1.2,0.6l0.1,0.9c0.9-0.1,1.8-0.4,2-1.5l0,0l0-0.2
		h0v-3.3h-2.7V298h3.7v0c0.1,1.6,0.4,3,0.8,4.2c-0.5,0.7-1.1,1.2-1.7,1.6v1.3c0.7-0.5,1.5-1.1,2.1-1.9l0,0l0,0c0.5,0.8,1.3,2,2.4,2
		c0.2,0,0.4,0,0.6-0.1v-1.1c-0.4,0.1-1.3,0.3-2.2-1.8c0.6-0.9,1.2-1.9,1.7-2.9l-1.1,0c-0.3,0.6-0.6,1.2-0.9,1.7l0,0.1l0-0.1
		c-0.3-0.9-0.4-1.9-0.5-3l0,0h3v-0.9l-1.1-1.9h-1.1l1.1,1.9H86v0c0-0.7,0-1.3,0-1.9h-1c0,0.3,0,1,0,1.9l0,0h-4.7v0.9l0,0v2.5
		c0,1-0.1,3.4-1.3,4.4l1.1,0.6C80.3,305.3,81.4,303.7,81.4,300.4"/>
	<polygon class="st0" points="51.2,284.5 51.2,284.5 51.2,284.5 49.7,285.6 49.9,287 47.8,290.8 41.7,287.6 44.5,282.3 43.9,282 
		42.3,283.2 42.6,284.6 41.1,287.3 35.9,284.5 35,286.2 46.9,292.6 43.9,298.2 44.5,298.5 51.8,284.8 	"/>
	<polygon class="st0" points="85.8,258.6 85.9,259.2 91.1,258.2 92.1,262.8 94,262.5 93,257.8 95.4,257.3 95.2,256.6 92.9,257.1 
		91,247.8 89.1,248.2 91,257.5 	"/>
	<path class="st0" d="M89.3,252.4c0.7-1.6-3.3-1.8-3.3-1.8l-0.2,0.4c1.8,1,1.8,1.5,2.4,1.7C88.7,252.9,89.1,252.7,89.3,252.4"/>
	<path class="st0" d="M89.9,256.2c0.8-1.5-3.1-2.1-3.1-2.1l-0.2,0.4c1.7,1.2,1.7,1.6,2.2,2C89.3,256.7,89.8,256.6,89.9,256.2"/>
	<path class="st0" d="M81.4,252.3l0.4,2.1l-2.7,0.5l0.1,0.7l2.3-0.5c0,0.6-0.3,4.3-1.3,6.7l0.5,0.3c0,0,1.2-1.8,1.9-4l1.3,6.3
		l1.9-0.4l-1.6-7.7c1.1,0.9,1.1,1.2,1.6,1.6c0.4,0.2,0.9,0.1,1.1-0.2c0.7-1.3-2.1-1.9-2.9-2.1l-0.2-0.9l2.3-0.5l-0.1-0.7l-2.3,0.5
		l-0.5-2.5c0.8-0.4,1.5-0.8,2-1.3l-1.9-0.9c0,0-1.8,1.9-4.7,3.3l0.1,0.6C78.8,253.2,80,252.9,81.4,252.3"/>
	<path class="st0" d="M157.9,282.4c0.2-0.1,0.5-0.3,0.7-0.5l5.7,10.2l-2.3,0.7l0.4,0.7l3,0.6l0,0h0h0l0.6-0.3l-0.1-2l-1.3-0.6v0
		l-0.9-1.6c0.6,0.2,1.9,0.5,3.7,0.7l-0.5-2.4c0,0-2.5,0.7-3.7,0.6l-2.3-4.1c0.1,0.1,0.2,0.1,0.3,0.1c1.8,0.4,1.2-4.2,1.2-4.2
		l-0.5-0.1c-0.7,2.2-1.2,2.5-1.4,3.2c0,0.1,0,0.3,0,0.4l-1.3-2.3c0.2-0.2,0.5-0.6,0.5-0.6l-0.3-0.4l-0.1,0c-1.5,0.5-2.2,0-3.1,0.5
		c-0.4,0.2-0.8,0.8-0.5,1.3C156.2,283,157,282.9,157.9,282.4"/>
	<path class="st0" d="M163,287c1.7,0.3,1.3-4,1.3-4l-0.4-0.1c-0.7,2-1.2,2.4-1.4,3.1C162.4,286.5,162.6,286.9,163,287"/>
	<path class="st0" d="M151.2,291.1c1.8,2.4,3.5,1.4,3.5,1.4l2.6-1.4l2.8,5.1l0.6-0.3l0,0v0v0l-0.1-1.9l-1.3-0.6l-1.4-2.6l0.9-0.5
		l2.7,1.2l0.6-0.3l-4-7.2l-0.6,0.3l3,5.3l-2.6-1l0,0L157,289l-3.5-6.2l-0.6,0.3l3.5,6.2l-2.6,1.4c-0.3,0.2-0.4,0-0.6-0.4
		c-0.2-0.3-1-2.1-1.2-2.4l-0.5,0.3C152.5,290.8,151.2,291.1,151.2,291.1"/>
	<path class="st0" d="M117.7,255.3l-2.5-0.6l-0.2,0.7l0.3,0.1c0,1.9,0.4,3.5,1.1,4.9c-2.6,1.6-5,2-5,2l-0.1,0.6
		c2.2,0.3,4.3-0.3,6-1.1c1.6,2.3,3.5,3.5,3.5,3.5c0.6-1.1,1.4-1.1,1.6-1.1l0.1-0.5c-1.6-0.7-2.8-1.7-3.8-2.7
		c2.5-1.6,4.1-3.6,4.2-3.7l0,0l0.2-0.7l-3.5-0.9l0.5-2.1l4.4,1.1l0.2-0.7h0l-1.5-1.2l-1.3,0.5l-1.6-0.4l0.8-3l-1.9-0.5l-0.7,3.1
		l-2.5-0.6l-0.2,0.7l2.5,0.6L117.7,255.3z M117.5,259.5c-1.1-1.8-1.4-3.5-1.4-3.9l4.2,1C119.5,257.9,118.5,258.8,117.5,259.5"/>
	<path class="st0" d="M108.5,262.3l0.5,0.1l0,0l1.9,0.5l1.7-6.9c0.9-0.2,1.5-0.4,1.9-0.6l0.2-0.7c-0.6,0.1-1.2,0.2-1.8,0.2l0.7-2.9
		l1.7,0.4l0.2-0.7l-1.7-0.4l0.8-3.1l-1.9-0.5l-0.7,3.1l-2.2-0.5l-0.2,0.7l2.2,0.5l-0.9,3.5c-1.6,0.1-2.8,0-2.8,0l0.1,1.8
		c0.8-0.1,1.6-0.3,2.3-0.4l-0.9,3.6l0-0.1c-0.1,0.5-0.2,0.7-1.3,0.5c-0.5-0.1-0.9-0.3-0.9-0.3l-0.1,0.4
		C108.7,261.1,108.5,262.3,108.5,262.3"/>
	<path class="st0" d="M55.4,265.9c0.1-1.7-3.7-0.5-3.7-0.5l0,0.4c2,0.3,2.2,0.7,2.9,0.8C55,266.6,55.4,266.3,55.4,265.9"/>
	<path class="st0" d="M52.7,268.8l0,0.4c2,0.3,2.2,0.7,2.9,0.8c0.5,0,0.8-0.3,0.9-0.7C56.5,267.6,52.7,268.8,52.7,268.8"/>
	<path class="st0" d="M70.1,266.3l-0.4-0.5l-1.1,0.9l-1.8-2.3l1.1-0.8l-0.4-0.5l-1.1,0.9l-2.3-2.9l-1.1,0.9l-4.6,3.6
		c0-0.5,0-1-0.1-1.5l6.1-4.8l-0.4-0.5l-1.9,0.4l-0.4,1.4l0,0l-3.5,2.8c-0.1-0.6-0.2-1.2-0.4-1.9l-2,0.9c0,0,1.7,3,1.9,6.2h0.5
		c0,0,0.1-0.4,0.1-1.1l1.4,1.8l-1.2,1l0.4,0.5l1.2-1l1.8,2.3v0l0.4,0.5l0.2,0.3l1.5-1.2l-0.2-0.3l3.6-2.8c0.4,0.5,0.5,0.9-0.1,1.4
		c-0.8,0.7-2.3,1.8-2.3,1.8l0.3,0.3c0,0,2-1.3,2.7-0.4c0,0,2.6-2.1,0.9-4.3L70.1,266.3z M59.4,265.5l3.6-2.8l1.8,2.3l-0.8,0.6
		c0,0,0,0,0-0.1c0.1-1.7-3.7-0.5-3.7-0.5l0,0.4c2.1,0.3,2.2,0.7,2.9,0.8c0,0,0.1,0,0.1,0l-2,1.6L59.4,265.5z M66.3,268.4
		C66.3,268.4,66.3,268.4,66.3,268.4c0.1-1.7-3.7-0.5-3.7-0.5l0,0.4c2,0.3,2.2,0.7,2.9,0.8c0,0,0,0,0.1,0l-2,1.6l-1.8-2.3l3.6-2.8
		l1.8,2.3h0c0,0,0,0,0,0L66.3,268.4z"/>
	<path class="st0" d="M56.1,273.2l0.4,0.5c0,0,1.5-0.7,3.5,1.9c0.7,0.8,1.1,1.4,1.1,1.4l1-0.8c0,0-2.4-3.1-3.1-4.1
		c-0.7-1-2.5-6.5-2.8-7.4l-0.5,0.4c0.4,1.4,1.7,5.8,1.7,6.8C57.3,272.8,56.1,273.2,56.1,273.2"/>
	<path class="st0" d="M148.3,270.6l-0.9-1.8l-1.4-0.1l0,0l-3-2.4c1.7-1.5,2.8-3,3.1-3.5l-1.8-1.4c-1,1.5-2,2.6-2.9,3.6l-4.8-3.8
		l-0.4,0.5l4.7,3.8c-4.3,3.8-8.4,3.6-10.3,3.2l-0.5,0.6c5,2.3,9.4,0.1,12.3-2.4c-3.8,5.4-1.7,10.9-1.7,10.9c1.4-0.9,2.4,0.3,2.4,0.3
		l0.3-0.4c-2.8-4.4-0.7-9.8-0.5-10.4l4.9,3.9L148.3,270.6L148.3,270.6L148.3,270.6z"/>
</g>
</svg>
